<svg width="593" height="477" viewBox="0 0 593 477" fill="none" xmlns="http://www.w3.org/2000/svg">
<path d="M593 310.03V316.026C593.01 325.73 590.998 335.346 587.072 344.357C586.594 345.447 586.092 346.524 585.565 347.588C584.727 349.262 583.833 350.904 582.883 352.512C582.569 353.037 582.255 353.555 581.928 354.068C577.65 360.867 572.258 367.023 565.94 372.319C565.651 372.567 565.356 372.809 565.061 373.051L564.973 373.12L563.962 373.926C559.267 377.627 554.133 380.832 548.658 383.481C547.163 384.207 545.637 384.893 544.092 385.532C541.03 386.807 537.884 387.905 534.672 388.821C533.912 389.039 533.146 389.247 532.38 389.443C530.534 389.921 528.669 390.341 526.772 390.698C521.194 391.754 515.512 392.285 509.816 392.282H476.124C473.872 392.282 471.641 392.689 469.56 393.48C467.479 394.271 465.588 395.43 463.995 396.891C462.402 398.352 461.139 400.087 460.278 401.996C459.416 403.905 458.973 405.951 458.974 408.017V466.712H172.133V408.017C172.136 405.088 171.246 402.217 169.562 399.728C167.878 397.24 165.469 395.233 162.606 393.935C162.158 393.722 161.699 393.53 161.231 393.359C159.231 392.634 157.1 392.265 154.951 392.27H98.2368C97.3387 392.27 96.4533 392.27 95.5615 392.236C90.6617 392.1 85.7834 391.582 80.9796 390.687C79.0914 390.337 77.2263 389.93 75.3842 389.466C70.2344 388.17 65.2284 386.434 60.4317 384.282C59.8037 384.011 59.2322 383.741 58.6356 383.453C53.0367 380.804 47.7719 377.6 42.9358 373.898L42.6093 373.65C42.3706 373.466 42.132 373.281 41.8996 373.074L40.9011 372.273C39.6075 371.231 38.3515 370.142 37.1332 369.025C32.2139 364.514 27.9042 359.477 24.297 354.021C22.9092 351.925 21.6218 349.765 20.4537 347.542C19.8885 346.482 19.3485 345.399 18.8461 344.311C16.575 339.492 14.8393 334.475 13.6651 329.336C11.5605 320.087 11.2586 310.569 12.7734 301.224C12.9429 300.135 13.1502 299.058 13.4014 297.987C13.4893 297.543 13.5898 297.1 13.6903 296.662C13.8347 296 13.998 295.343 14.1675 294.687C14.6113 292.959 15.12 291.25 15.6936 289.561C16.0117 288.616 16.3509 287.677 16.7109 286.744C18.9039 281.006 21.8164 275.521 25.3897 270.399C29.3656 264.695 34.118 259.479 39.5321 254.877C40.8446 253.759 42.1948 252.677 43.5827 251.646C44.2107 251.173 44.8386 250.718 45.4666 250.275C47.3213 248.958 49.2388 247.71 51.219 246.531C58.6746 242.076 66.8396 238.711 75.4218 236.556C77.8961 235.934 80.4081 235.413 82.9577 234.995C84.8543 234.676 86.7717 234.421 88.7101 234.229C90.8955 234.01 93.1061 233.86 95.348 233.797C96.3151 233.797 97.2885 233.751 98.2619 233.751H164.829C168.752 233.755 172.607 232.815 176.009 231.024C179.411 229.233 182.241 226.654 184.215 223.545C184.466 223.165 184.699 222.773 184.912 222.393C185.271 221.739 185.591 221.068 185.873 220.383C186.721 218.297 187.194 216.099 187.273 213.875C187.273 213.817 187.273 213.759 187.273 213.702C187.273 213.529 187.273 213.351 187.273 213.172C187.273 213.091 187.273 213.011 187.273 212.936C187.273 212.861 187.273 212.809 187.273 212.746C187.239 211.333 187.044 209.928 186.689 208.553C186.421 207.447 186.045 206.366 185.565 205.322C185.175 204.446 184.717 203.598 184.196 202.782C182.533 200.173 180.265 197.931 177.552 196.216C174.838 194.501 171.747 193.354 168.496 192.858C168.308 192.829 168.126 192.8 167.938 192.783C166.898 192.645 165.848 192.578 164.798 192.582H52.5001H51.1814C37.7155 192.293 24.8913 187.246 15.3858 178.494C14.8018 177.958 14.2303 177.411 13.6777 176.852C9.42122 172.565 6.04107 167.609 3.69891 162.223C3.23839 161.163 2.81972 160.086 2.44293 158.992C0.157713 152.358 -0.535522 145.35 0.410801 138.447C1.35712 131.545 3.9206 124.912 7.9253 119.004C8.64539 117.932 9.41782 116.892 10.2426 115.882C11.1343 114.765 12.0805 113.687 13.0811 112.651C13.2758 112.443 13.4767 112.236 13.7091 112.035C14.2617 111.459 14.8332 110.929 15.4172 110.393C24.9227 101.641 37.7469 96.5934 51.2128 96.3052H52.5315C60.6165 96.3151 68.5433 94.2502 75.4156 90.3441C78.1357 88.793 80.6627 86.9737 82.9514 84.9186C87.7515 80.6178 91.4048 75.3593 93.6273 69.5522C94.0292 68.4982 94.3872 67.4154 94.6886 66.3211C94.9461 65.4053 95.1722 64.4838 95.3543 63.545C95.8194 61.1864 96.0527 58.7943 96.0514 56.3974V15.7351C96.0505 13.669 96.4935 11.623 97.355 9.71395C98.2166 7.80492 99.4797 6.07027 101.072 4.60906C102.665 3.14785 104.556 1.98872 106.637 1.19789C108.718 0.407055 110.949 1.56007e-05 113.202 1.57392e-05H512.944C521.258 -0.00615563 529.455 1.80261 536.856 5.27681C544.258 8.75101 550.651 13.7909 555.509 19.9798C556.024 20.6134 556.507 21.2642 556.972 21.9208C557.274 22.347 557.6 22.7732 557.858 23.2109C562.094 29.6295 564.638 36.8663 565.288 44.3454C565.938 51.8245 564.675 59.3395 561.6 66.2923C561.117 67.3866 560.583 68.4636 560.012 69.5234C554.528 79.6303 545.358 87.657 534.094 92.2102C532.213 92.9686 530.284 93.6226 528.317 94.1684C523.327 95.5705 518.137 96.281 512.918 96.2764H470.215C467.345 96.2733 464.489 96.6417 461.731 97.3707C460.814 97.6184 459.91 97.9006 459.031 98.2174C457.851 98.642 456.701 99.1345 455.589 99.6918C454.798 100.089 454.025 100.521 453.278 100.982C448.853 103.714 445.28 107.456 442.91 111.839C442.766 112.104 442.627 112.369 442.496 112.639C441.966 113.687 441.512 114.767 441.139 115.87C440.219 118.587 439.757 121.417 439.77 124.262C439.768 128.868 441.007 133.404 443.376 137.465C445.746 141.527 449.173 144.988 453.353 147.542C455.156 148.652 457.085 149.579 459.106 150.307C462.667 151.595 466.462 152.253 470.29 152.248C470.849 152.248 471.402 152.248 471.955 152.282C478.641 152.525 485.148 154.333 490.857 157.535C491.535 157.909 492.195 158.301 492.842 158.716L493.237 158.975C494.41 159.736 495.534 160.559 496.603 161.44C496.911 161.687 497.231 161.947 497.514 162.206C501.419 165.593 504.529 169.677 506.652 174.206C508.775 178.735 509.867 183.614 509.86 188.544V213.31C509.849 218.562 511.62 223.686 514.927 227.973C518.234 232.26 522.914 235.497 528.317 237.235C528.687 237.356 529.064 237.466 529.441 237.569C530.936 237.978 532.48 238.428 534.069 238.934C537.266 239.931 540.625 241.123 544.061 242.534C550.188 245.026 556.021 248.087 561.469 251.669C562.938 252.642 564.395 253.667 565.82 254.75L566.015 254.9C567.899 256.345 569.783 257.901 571.573 259.553C575.167 262.858 578.37 266.501 581.131 270.422C584.693 275.493 587.468 280.994 589.376 286.767C589.686 287.689 589.975 288.628 590.243 289.584C590.714 291.242 591.135 292.953 591.499 294.71C591.717 295.793 591.911 296.893 592.083 298.01C592.246 299.07 592.391 300.152 592.498 301.247C592.828 304.165 592.996 307.096 593 310.03Z" fill="#F0F3F9"/>
<path opacity="0.11" d="M557.832 23.1821H96.02V19.951H555.509C556.024 20.5846 556.507 21.2354 556.972 21.892C557.274 22.3182 557.569 22.7444 557.832 23.1821Z" fill="#34629B"/>
<path opacity="0.11" d="M561.6 66.2923C561.117 67.3866 560.583 68.4636 560.012 69.5234H93.5959C93.9978 68.4694 94.3558 67.3866 94.6572 66.2923H561.6Z" fill="#34629B"/>
<path opacity="0.11" d="M442.502 112.639C441.972 113.687 441.519 114.767 441.145 115.87H10.2238C11.1155 114.753 12.0617 113.676 13.0623 112.639H442.502Z" fill="#34629B"/>
<path opacity="0.11" d="M497.495 162.212H3.69263C3.2321 161.152 2.81344 160.075 2.43665 158.981H493.218C494.391 159.742 495.515 160.565 496.584 161.446C496.917 161.693 497.194 161.952 497.495 162.212Z" fill="#34629B"/>
<path opacity="0.11" d="M509.841 205.328V208.553H186.689C186.421 207.447 186.045 206.366 185.565 205.322L509.841 205.328Z" fill="#34629B"/>
<path opacity="0.11" d="M566.04 254.9H39.5132C40.8257 253.782 42.1759 252.7 43.5638 251.669H561.494C562.963 252.642 564.42 253.667 565.846 254.75L566.04 254.9Z" fill="#34629B"/>
<path opacity="0.11" d="M592.516 301.247H12.7797C12.9492 300.158 13.1565 299.081 13.4077 298.01H592.102C592.265 299.07 592.41 300.13 592.516 301.247Z" fill="#34629B"/>
<path opacity="0.11" d="M587.065 344.357C586.588 345.447 586.086 346.525 585.558 347.588H20.46C19.8948 346.528 19.3547 345.446 18.8524 344.357H587.065Z" fill="#34629B"/>
<path opacity="0.11" d="M526.778 390.698C521.2 391.754 515.518 392.285 509.822 392.282H476.124C473.467 392.278 470.845 392.844 468.469 393.935H162.606C162.158 393.722 161.699 393.53 161.231 393.359C159.231 392.634 157.1 392.265 154.951 392.271H98.2367C97.3387 392.271 96.4532 392.271 95.5615 392.236C90.6617 392.1 85.7834 391.582 80.9795 390.687L526.778 390.698Z" fill="#34629B"/>
<path opacity="0.11" d="M172.133 437.045H458.974V440.276H172.133V437.045Z" fill="#34629B"/>
<path d="M34.3951 476.855H69.8515C72.9036 476.855 75.3779 474.586 75.3779 471.787V471.781C75.3779 468.982 72.9036 466.713 69.8515 466.713H34.3951C31.343 466.713 28.8688 468.982 28.8688 471.781V471.787C28.8688 474.586 31.343 476.855 34.3951 476.855Z" fill="#6E8EC8"/>
<path d="M85.4067 476.855H582.99C586.042 476.855 588.516 474.586 588.516 471.787V471.781C588.516 468.982 586.042 466.713 582.99 466.713H85.4067C82.3546 466.713 79.8804 468.982 79.8804 471.781V471.787C79.8804 474.586 82.3546 476.855 85.4067 476.855Z" fill="#6E8EC8"/>
<path d="M258.186 317.178H434.275V467.565H258.186V317.178Z" fill="#547DBA"/>
<path d="M258.186 356.17H446.427V420.815H258.186V356.17Z" fill="#34629B"/>
<path d="M407.523 176.19H412.427C452.034 176.19 490.018 190.62 518.024 216.305C546.03 241.991 561.764 276.827 561.764 313.152V317.183H258.186V313.152C258.186 276.827 273.92 241.991 301.926 216.305C329.932 190.62 367.916 176.19 407.523 176.19Z" fill="#547DBA"/>
<path d="M561.764 313.152V317.183H488.125V313.152C488.125 248.363 439.073 194.079 373.165 179.842C384.431 177.407 395.967 176.182 407.541 176.19H412.446C494.908 176.19 561.764 237.512 561.764 313.152Z" fill="#34629B"/>
<path d="M258.186 317.178V467.559H212.437C210.272 467.559 208.195 466.77 206.664 465.366C205.133 463.962 204.273 462.058 204.273 460.072V366.6C204.273 353.491 209.951 340.919 220.058 331.649C230.166 322.38 243.874 317.172 258.167 317.172L258.186 317.178Z" fill="#BBD7FF"/>
<path d="M222.07 26.3153V259.001C222.075 260.239 221.812 261.467 221.299 262.613C220.785 263.758 220.03 264.8 219.077 265.678C218.124 266.556 216.991 267.253 215.744 267.729C214.497 268.205 213.16 268.451 211.809 268.452H105.597C104.247 268.453 102.911 268.21 101.664 267.736C100.417 267.263 99.2843 266.569 98.3301 265.694C97.376 264.819 96.6192 263.78 96.1032 262.636C95.5872 261.493 95.322 260.267 95.3228 259.029V233.82C96.2899 233.82 97.2633 233.774 98.2367 233.774H164.804C168.727 233.778 172.582 232.838 175.984 231.047C179.386 229.256 182.216 226.677 184.19 223.568C184.441 223.188 184.673 222.796 184.887 222.416C185.246 221.762 185.566 221.091 185.848 220.406C186.696 218.321 187.169 216.122 187.248 213.898V212.746C187.143 207.943 185.208 203.325 181.78 199.692C178.351 196.06 173.645 193.642 168.478 192.858C168.289 192.829 168.107 192.801 167.919 192.783C166.879 192.645 165.829 192.578 164.779 192.582H95.3228V26.3153C95.322 25.0777 95.5872 23.8521 96.1032 22.7086C96.6192 21.565 97.376 20.526 98.3301 19.6509C99.2843 18.7757 100.417 18.0817 101.664 17.6084C102.911 17.1352 104.247 16.892 105.597 16.8927H211.809C214.532 16.8958 217.142 17.8899 219.066 19.6566C220.99 21.4234 222.07 23.8183 222.07 26.3153Z" fill="#6E8EC8"/>
<path d="M209.605 39.6544V245.673C209.603 248.172 208.52 250.567 206.594 252.334C204.667 254.101 202.055 255.094 199.331 255.096H118.062C115.338 255.096 112.724 254.103 110.798 252.336C108.871 250.569 107.788 248.172 107.788 245.673V233.774H164.835C168.758 233.778 172.613 232.838 176.015 231.047C179.418 229.256 182.247 226.677 184.221 223.568C184.473 223.188 184.705 222.796 184.918 222.416C185.277 221.762 185.598 221.091 185.879 220.406C186.728 218.321 187.201 216.122 187.28 213.898V212.746C187.174 207.943 185.239 203.325 181.811 199.692C178.383 196.06 173.677 193.642 168.509 192.858C168.321 192.829 168.138 192.8 167.95 192.783C166.91 192.645 165.861 192.578 164.81 192.582H107.788V39.6544C107.788 38.417 108.054 37.1918 108.571 36.0486C109.087 34.9053 109.844 33.8666 110.798 32.9916C111.752 32.1167 112.884 31.4226 114.131 30.9491C115.377 30.4755 116.713 30.2318 118.062 30.2318H199.331C202.056 30.2318 204.669 31.2246 206.596 32.9916C208.522 34.7587 209.605 37.1554 209.605 39.6544Z" fill="#E9F1FF"/>
<path d="M209.605 63.3549V245.673C209.603 248.172 208.52 250.567 206.594 252.334C204.667 254.101 202.055 255.094 199.331 255.096H138.453V233.785H164.829C168.752 233.79 172.607 232.85 176.009 231.059C179.411 229.268 182.241 226.688 184.215 223.579C184.466 223.199 184.699 222.808 184.912 222.428C185.271 221.774 185.592 221.103 185.873 220.417C186.722 218.332 187.195 216.134 187.273 213.909V212.757C187.168 207.954 185.233 203.336 181.805 199.704C178.377 196.072 173.671 193.654 168.503 192.87C168.314 192.841 168.132 192.812 167.944 192.795C166.904 192.657 165.855 192.589 164.804 192.593H138.428V163.283C138.428 162.366 138.825 161.487 139.532 160.839C140.239 160.191 141.197 159.827 142.196 159.827H161.79C162.789 159.827 163.747 159.463 164.454 158.815C165.161 158.167 165.558 157.288 165.558 156.371V66.8106C165.558 65.8941 165.955 65.0152 166.661 64.3671C167.368 63.719 168.326 63.3549 169.325 63.3549H209.605Z" fill="#CDDCF5"/>
<path d="M147.176 172.158H151.899V176.49H147.176V172.158Z" fill="#E9F1FF"/>
<path d="M147.176 191.533H151.899V192.587H147.176V191.533Z" fill="#E9F1FF"/>
<path d="M147.176 233.774H151.899V234.615H147.176V233.774Z" fill="#E9F1FF"/>
<path d="M147.176 249.659H151.899V253.99H147.176V249.659Z" fill="#E9F1FF"/>
<path d="M167.95 191.113V192.789C166.91 192.651 165.861 192.583 164.81 192.587H163.202V191.113H167.95Z" fill="#E9F1FF"/>
<path d="M174.029 70.203H178.752V74.5342H174.029V70.203Z" fill="#E9F1FF"/>
<path d="M174.029 97.3131H178.752V101.644H174.029V97.3131Z" fill="#E9F1FF"/>
<path d="M174.029 124.418H178.752V128.749H174.029V124.418Z" fill="#E9F1FF"/>
<path d="M174.029 151.528H178.752V155.859H174.029V151.528Z" fill="#E9F1FF"/>
<path d="M174.029 178.632H178.752V182.963H174.029V178.632Z" fill="#E9F1FF"/>
<path d="M174.029 232.847H178.752V237.178H174.029V232.847Z" fill="#E9F1FF"/>
<path d="M184.918 84.8553H189.641V89.1864H184.918V84.8553Z" fill="#E9F1FF"/>
<path d="M184.918 111.96H189.641V116.291H184.918V111.96Z" fill="#E9F1FF"/>
<path d="M184.918 139.07H189.641V143.401H184.918V139.07Z" fill="#E9F1FF"/>
<path d="M184.918 166.174H189.641V170.505H184.918V166.174Z" fill="#E9F1FF"/>
<path d="M184.918 193.279H189.641V197.61H184.918V193.279Z" fill="#E9F1FF"/>
<path d="M189.641 220.389V224.72H184.918V222.416C185.277 221.762 185.598 221.091 185.879 220.406L189.641 220.389Z" fill="#E9F1FF"/>
<path d="M184.918 247.493H189.641V251.824H184.918V247.493Z" fill="#E9F1FF"/>
<path d="M198.295 69.9553H203.017V74.2865H198.295V69.9553Z" fill="#E9F1FF"/>
<path d="M198.295 97.0597H203.017V101.391H198.295V97.0597Z" fill="#E9F1FF"/>
<path d="M198.295 124.17H203.017V128.501H198.295V124.17Z" fill="#E9F1FF"/>
<path d="M198.295 151.274H203.017V155.605H198.295V151.274Z" fill="#E9F1FF"/>
<path d="M198.295 178.379H203.017V182.71H198.295V178.379Z" fill="#E9F1FF"/>
<path d="M198.295 205.489H203.017V209.82H198.295V205.489Z" fill="#E9F1FF"/>
<path d="M198.295 232.593H203.017V236.924H198.295V232.593Z" fill="#E9F1FF"/>
<path d="M187.28 213.88V260.106H184.221V223.568C184.473 223.188 184.705 222.796 184.918 222.416C185.277 221.762 185.598 221.091 185.879 220.406C186.73 218.315 187.203 216.111 187.28 213.88Z" fill="#6E8EC8"/>
<path d="M187.28 25.221V212.752C187.211 209.244 186.157 205.813 184.221 202.788V25.221H187.28Z" fill="#6E8EC8"/>
<path d="M127.583 25.221H130.641V192.587H127.583V25.221Z" fill="#6E8EC8"/>
<path d="M127.583 233.774H130.641V260.106H127.583V233.774Z" fill="#6E8EC8"/>
<path d="M220.08 44.1584V46.9633H95.8379V44.1584H220.08Z" fill="#6E8EC8"/>
<path d="M220.08 141.258V144.063H95.8379V141.258H220.08Z" fill="#6E8EC8"/>
<path d="M100.058 108.878H217.329V121.584H100.058V108.878Z" fill="#6E8EC8"/>
<path d="M461.781 97.3938C460.864 97.6415 459.96 97.9237 459.081 98.2404C457.901 98.6651 456.752 99.1575 455.639 99.7149C454.848 100.112 454.076 100.544 453.328 101.005C450.426 102.771 447.877 104.983 445.792 107.542H300.833C299.366 107.542 297.959 107.007 296.921 106.056C295.883 105.104 295.301 103.814 295.301 102.468C295.301 101.122 295.883 99.8316 296.921 98.88C297.959 97.9284 299.366 97.3938 300.833 97.3938H461.781Z" fill="#6285B7"/>
<path d="M272.153 441.238L278.433 336.749C278.764 331.476 276.797 326.298 272.966 322.355C269.135 318.411 263.753 316.025 258.004 315.721L257.426 315.686C251.677 315.382 246.032 317.186 241.732 320.699C237.432 324.213 234.83 329.149 234.498 334.422L228.218 438.911C228.169 439.714 228.468 440.502 229.051 441.102C229.634 441.702 230.452 442.066 231.327 442.114L268.661 444.089C269.536 444.135 270.395 443.86 271.05 443.326C271.704 442.791 272.101 442.04 272.153 441.238Z" fill="#015D76"/>
<path d="M265.787 440.112L265.289 454.561L233.158 453.63L233.656 439.18L265.787 440.112Z" fill="#015D76"/>
<path d="M260.271 315.919L340.271 319.481C342.588 319.585 344.766 320.528 346.325 322.104C347.884 323.679 348.697 325.759 348.584 327.884L348.226 334.655C347.836 342.018 344.273 348.938 338.32 353.892C332.368 358.845 324.513 361.427 316.485 361.07L258.025 358.466C251.87 358.192 246.085 355.687 241.944 351.501C237.803 347.316 235.645 341.793 235.944 336.148C236.242 330.502 238.974 325.197 243.538 321.399C248.102 317.601 254.124 315.622 260.279 315.896L260.271 315.919Z" fill="#015D76"/>
<path d="M251.53 457.117L219.916 458.707C219.774 456.788 220.049 454.863 220.724 453.043C221.399 451.222 222.462 449.543 223.851 448.103C225.24 446.662 226.927 445.489 228.814 444.651C230.702 443.813 232.751 443.328 234.845 443.223C236.938 443.117 239.034 443.394 241.01 444.038C242.985 444.681 244.802 445.678 246.354 446.971C247.906 448.264 249.163 449.826 250.052 451.568C250.94 453.31 251.442 455.196 251.53 457.117Z" fill="#015D76"/>
<path d="M216.714 462.243L216.657 457.797C216.645 456.868 217.02 455.97 217.705 455.286C218.39 454.602 219.333 454.184 220.343 454.116L261.891 451.312C262.568 451.267 263.248 451.349 263.889 451.555C264.529 451.76 265.118 452.083 265.617 452.504C266.116 452.926 266.517 453.436 266.793 454.005C267.069 454.573 267.215 455.187 267.223 455.81L267.324 464.046L216.714 462.243Z" fill="#015D76"/>
<path d="M267.298 461.592L267.33 464.265C267.335 464.669 267.253 465.071 267.089 465.447C266.924 465.822 266.681 466.164 266.372 466.454C266.064 466.743 265.696 466.974 265.291 467.133C264.885 467.292 264.449 467.376 264.008 467.381L219.05 467.836C218.328 467.843 217.613 467.72 216.943 467.474C216.274 467.228 215.664 466.863 215.148 466.4C214.632 465.937 214.221 465.386 213.938 464.778C213.655 464.169 213.506 463.515 213.498 462.854C213.49 462.192 213.624 461.535 213.892 460.921C214.161 460.306 214.559 459.747 215.063 459.273C215.568 458.8 216.169 458.422 216.832 458.162C217.496 457.902 218.209 457.764 218.93 457.756L231.522 457.63C232.772 457.619 233.976 458.064 234.87 458.866C235.763 459.668 236.273 460.762 236.288 461.909L267.298 461.592Z" fill="#015D76"/>
<path d="M274.54 256.733C265.894 255.414 257.719 260.771 256.28 268.701C254.841 276.63 260.683 284.127 269.329 285.447L324.424 293.858C333.07 295.177 341.245 289.819 342.684 281.89C344.123 273.961 338.281 266.464 329.635 265.144L274.54 256.733Z" fill="#F9A0B4"/>
<path d="M266.554 285.617C277.723 285.277 286.534 278.28 286.234 269.989C285.934 261.698 276.637 255.252 265.468 255.592C254.3 255.931 245.489 262.928 245.789 271.219C246.089 279.511 255.386 285.957 266.554 285.617Z" fill="#F9A0B4"/>
<path d="M278.32 257.06C278.848 257.316 279.316 257.666 279.696 258.089C280.077 258.512 280.363 258.999 280.538 259.523C280.713 260.048 280.773 260.599 280.716 261.144C280.659 261.69 280.485 262.22 280.204 262.704C279.923 263.189 279.541 263.618 279.08 263.967C278.618 264.316 278.086 264.578 277.514 264.739C276.942 264.899 276.341 264.955 275.745 264.902C275.15 264.85 274.571 264.69 274.043 264.432L261.533 258.304C261.005 258.047 260.537 257.697 260.157 257.274C259.776 256.852 259.49 256.364 259.315 255.84C259.14 255.316 259.08 254.765 259.137 254.219C259.194 253.673 259.368 253.143 259.649 252.659C259.929 252.175 260.311 251.746 260.772 251.397C261.233 251.048 261.764 250.785 262.336 250.625C262.907 250.464 263.508 250.409 264.103 250.461C264.698 250.514 265.276 250.674 265.804 250.932" fill="#F9A0B4"/>
<path d="M325.061 177.186C332.782 177.186 339.04 171.446 339.04 164.366C339.04 157.285 332.782 151.545 325.061 151.545C317.341 151.545 311.082 157.285 311.082 164.366C311.082 171.446 317.341 177.186 325.061 177.186Z" fill="#4F182E"/>
<path d="M323.849 177.135C323.529 177.135 323.221 177.077 322.876 177.025C319.211 176.491 315.929 174.643 313.75 171.888C311.571 169.134 310.675 165.699 311.258 162.338C311.841 158.978 313.855 155.967 316.858 153.969C319.862 151.971 323.607 151.149 327.272 151.683C327.598 151.729 327.9 151.781 328.226 151.85C324.706 151.577 321.203 152.536 318.422 154.535C315.642 156.533 313.789 159.424 313.238 162.624C312.687 165.825 313.477 169.098 315.45 171.786C317.424 174.474 320.433 176.376 323.874 177.112L323.849 177.135Z" fill="#622F2B"/>
<path d="M340.799 166.646C340.219 170.005 338.21 173.014 335.211 175.013C332.213 177.013 328.471 177.838 324.81 177.307C324.483 177.261 324.163 177.204 323.849 177.135C320.408 176.399 317.398 174.497 315.425 171.809C313.452 169.121 312.661 165.848 313.213 162.647C313.764 159.447 315.617 156.556 318.397 154.558C321.178 152.559 324.681 151.6 328.201 151.873C328.528 151.873 328.829 151.937 329.174 151.983C332.836 152.514 336.117 154.357 338.297 157.107C340.477 159.857 341.377 163.288 340.799 166.646Z" fill="#512522"/>
<path d="M370.182 222.917L333.52 228.855L329.024 205.495L326.656 193.163L363.318 187.231L365.083 196.406L370.182 222.917Z" fill="#FFB2BF"/>
<path d="M365.221 202.536L332.405 211.286C330.706 211.739 329.729 213.369 330.223 214.927L334.332 227.89C334.826 229.448 336.603 230.344 338.302 229.891L371.119 221.141C372.817 220.688 373.794 219.058 373.3 217.501L369.191 204.537C368.697 202.979 366.92 202.084 365.221 202.536Z" fill="#FFF2EE"/>
<path d="M330.711 262.231L401.335 265.47L397.396 337.718L326.772 334.479L330.711 262.231Z" fill="#FFF2EE"/>
<path d="M401.935 257.831C403.241 233.778 383.564 213.332 357.986 212.165C332.408 210.997 310.614 229.549 309.308 253.602C308.003 277.654 327.679 298.1 353.258 299.268C378.836 300.435 400.63 281.883 401.935 257.831Z" fill="#FFF2EE"/>
<path d="M355.713 299.335C354.903 299.335 354.093 299.335 353.277 299.283C327.699 298.131 308.024 277.667 309.317 253.615C310.611 229.564 332.415 210.995 357.993 212.176C358.772 212.21 359.544 212.268 360.31 212.337C335.819 212.417 315.34 230.543 314.078 253.806C312.815 277.068 331.278 297.077 355.713 299.335Z" fill="white"/>
<path d="M397.173 336.864C396.992 340.589 396.006 344.245 394.272 347.618C392.539 350.991 390.093 354.016 387.075 356.515C381.908 360.815 375.212 363.243 368.235 363.346H367.915C367.419 363.346 366.929 363.346 366.427 363.346L309.876 360.823C306.91 360.687 304.005 360.002 301.335 358.809C298.665 357.616 296.286 355.941 294.34 353.883C291.602 351.013 289.747 347.526 288.964 343.781C288.626 342.169 288.487 340.526 288.55 338.885C288.989 326.992 300.017 317.736 312.551 318.295L397.958 322.102L397.173 336.864Z" fill="#007391"/>
<path d="M326.399 351.862L325.651 352.61L317.167 361.129L273.836 404.631L233.789 444.815C232.928 445.676 231.729 446.189 230.457 446.24C229.184 446.292 227.941 445.879 227 445.091L201.604 423.781C201.138 423.391 200.76 422.92 200.493 422.396C200.225 421.872 200.072 421.305 200.044 420.726C200.015 420.148 200.111 419.571 200.326 419.026C200.541 418.482 200.871 417.982 201.296 417.555L216.745 402.073L277.597 341.022L293.925 324.648C297.862 320.697 303.348 318.342 309.178 318.101C315.008 317.86 320.703 319.753 325.011 323.363C329.319 326.974 331.886 332.006 332.149 337.352C332.412 342.699 330.348 347.922 326.411 351.873L326.399 351.862Z" fill="#007391"/>
<path d="M226.292 444.497L212.533 458.306L188.56 438.216L202.319 424.406L226.292 444.497Z" fill="#FFB2BF"/>
<path d="M226.293 444.492L221.773 449.029L197.8 428.939L202.32 424.402L226.293 444.492Z" fill="#F9A0B4"/>
<path d="M371.551 264.178C384.88 264.178 395.685 254.269 395.685 242.045C395.685 229.82 384.88 219.911 371.551 219.911C358.223 219.911 347.417 229.82 347.417 242.045C347.417 254.269 358.223 264.178 371.551 264.178Z" fill="#F9CABD"/>
<path d="M390.538 241.796C389.878 232.652 381.26 225.73 371.289 226.336C361.319 226.942 353.772 234.846 354.432 243.99L358.049 294.063C358.709 303.207 367.327 310.129 377.298 309.523C387.268 308.917 394.815 301.013 394.155 291.869L390.538 241.796Z" fill="#329DA3"/>
<path d="M374.917 310.157C386.221 310.157 395.384 301.753 395.384 291.386C395.384 281.02 386.221 272.616 374.917 272.616C363.614 272.616 354.451 281.02 354.451 291.386C354.451 301.753 363.614 310.157 374.917 310.157Z" fill="#F9CABD"/>
<path d="M375.342 308.457C384.1 308.749 391.458 302.473 391.776 294.44C392.094 286.407 385.252 279.659 376.493 279.367L320.677 277.508C311.918 277.216 304.56 283.492 304.242 291.525C303.924 299.557 310.766 306.306 319.525 306.598L375.342 308.457Z" fill="#FFB2BF"/>
<path d="M316.848 307.082C327.877 305.431 335.637 297.455 334.18 289.268C332.723 281.08 322.601 275.781 311.572 277.432C300.543 279.083 292.783 287.059 294.24 295.246C295.698 303.434 305.819 308.733 316.848 307.082Z" fill="#FFB2BF"/>
<path d="M311.577 303.5C314.069 303.191 315.815 301.088 315.477 298.804C315.14 296.521 312.846 294.921 310.355 295.23L296.303 296.977C293.811 297.287 292.065 299.39 292.403 301.673C292.74 303.957 295.034 305.557 297.525 305.247L311.577 303.5Z" fill="#FFB2BF"/>
<path d="M302.578 296.692C305.07 296.383 306.817 294.28 306.48 291.997C306.143 289.713 303.849 288.112 301.358 288.422L287.306 290.167C284.814 290.476 283.067 292.578 283.404 294.862C283.742 297.146 286.035 298.746 288.527 298.437L302.578 296.692Z" fill="#FFB2BF"/>
<path d="M308.741 287.567C311.232 287.257 312.979 285.155 312.641 282.871C312.303 280.587 310.01 278.987 307.518 279.297L293.467 281.044C290.975 281.354 289.229 283.456 289.566 285.74C289.904 288.023 292.197 289.624 294.689 289.314L308.741 287.567Z" fill="#FFB2BF"/>
<path d="M321.264 285.213C323.616 286.029 326.244 284.944 327.133 282.788C328.022 280.633 326.837 278.224 324.485 277.408L311.223 272.804C308.872 271.988 306.244 273.074 305.355 275.229C304.465 277.384 305.651 279.793 308.002 280.61L321.264 285.213Z" fill="#FFB2BF"/>
<path d="M368.199 298.742L368.2 298.736C368.314 295.856 365.86 293.437 362.72 293.332L340.196 292.582C337.056 292.477 334.418 294.727 334.304 297.607L334.304 297.613C334.19 300.493 336.643 302.912 339.783 303.017L362.307 303.767C365.447 303.872 368.085 301.622 368.199 298.742Z" fill="#FDC3CD"/>
<path d="M365.083 196.406C362.479 199.763 359.014 202.481 354.993 204.318C350.972 206.155 346.52 207.056 342.029 206.94L335.222 206.767C333.084 206.717 330.979 206.283 329.024 205.489L326.656 193.163L363.318 187.243L365.083 196.406Z" fill="#F9A0B4"/>
<path d="M332.225 146.778L354.253 147.332C358.202 147.431 361.946 148.965 364.662 151.597C367.378 154.228 368.843 157.741 368.735 161.363L368.176 180.063C367.976 186.715 364.903 193.022 359.633 197.597C354.364 202.172 347.329 204.641 340.075 204.46L333.258 204.289C328.894 204.179 324.756 202.484 321.755 199.576C318.754 196.669 317.135 192.787 317.255 188.785L318.145 159.002C318.245 155.669 319.784 152.508 322.425 150.216C325.065 147.923 328.59 146.687 332.225 146.778Z" fill="#FFB2BF"/>
<path d="M359.387 148.297C358.65 148.18 357.905 148.112 357.158 148.095L335.134 147.519C331.499 147.429 327.973 148.667 325.332 150.959C322.691 153.252 321.15 156.413 321.048 159.747L320.125 189.546C320.034 192.646 320.985 195.696 322.849 198.283C324.713 200.871 327.399 202.869 330.543 204.009C326.722 203.323 323.289 201.416 320.856 198.628C318.423 195.84 317.147 192.35 317.255 188.78L318.141 159.021C318.244 155.688 319.786 152.529 322.427 150.237C325.068 147.946 328.592 146.709 332.226 146.799L354.25 147.375C356.009 147.397 357.749 147.709 359.387 148.297Z" fill="#FDC3CD"/>
<path d="M336.903 177.49L336.357 177.477C325.724 177.209 316.868 184.898 316.576 194.651L316.347 202.337C316.055 212.089 324.439 220.211 335.072 220.479L335.618 220.492C346.252 220.76 355.108 213.071 355.399 203.318L355.629 195.632C355.92 185.88 347.537 177.758 336.903 177.49Z" fill="#622F2B"/>
<path d="M332.277 177.489L331.731 177.476C321.097 177.208 312.241 184.897 311.95 194.65L311.72 202.336C311.429 212.088 319.812 220.21 330.446 220.477L330.992 220.491C341.625 220.758 350.481 213.069 350.773 203.317L351.002 195.631C351.294 185.879 342.91 177.757 332.277 177.489Z" fill="#622F2B"/>
<path d="M332.779 220.458C332.189 220.492 331.592 220.498 330.995 220.487H330.449C325.344 220.359 320.503 218.376 316.991 214.975C313.479 211.574 311.584 207.032 311.722 202.35L311.955 194.661C312.02 192.338 312.584 190.049 313.615 187.926C314.646 185.803 316.123 183.887 317.962 182.289C319.802 180.69 321.967 179.44 324.333 178.61C326.7 177.78 329.222 177.386 331.755 177.451H332.302H332.741C327.952 177.738 323.452 179.655 320.123 182.825C316.794 185.996 314.875 190.192 314.743 194.592L314.517 202.281C314.363 206.899 316.188 211.39 319.602 214.788C323.017 218.186 327.747 220.222 332.779 220.458Z" fill="#774340"/>
<path d="M358.676 156.005L369.052 156.265C370.311 156.297 371.504 156.786 372.37 157.625C373.236 158.463 373.703 159.583 373.668 160.737L373.183 176.985C373.145 178.241 372.565 179.433 371.569 180.297C370.574 181.161 369.245 181.627 367.875 181.593L367.837 181.592C365.205 181.526 362.709 180.503 360.899 178.75C359.088 176.996 358.112 174.654 358.184 172.24L358.669 156.004L358.676 156.005Z" fill="#622F2B"/>
<path d="M366.659 183.303C371.421 183.303 375.282 179.763 375.282 175.395C375.282 171.028 371.421 167.487 366.659 167.487C361.897 167.487 358.037 171.028 358.037 175.395C358.037 179.763 361.897 183.303 366.659 183.303Z" fill="#FFB2BF"/>
<path d="M359.719 140.141L327.377 139.328C319.823 139.138 313.531 144.601 313.324 151.529L313.324 151.535C313.116 158.464 319.073 164.234 326.627 164.424L358.969 165.237C366.524 165.427 372.816 159.964 373.023 153.036L373.023 153.03C373.23 146.101 367.274 140.331 359.719 140.141Z" fill="#622F2B"/>
<path d="M353.181 144.937L333.626 144.446C329.057 144.331 325.251 147.634 325.126 151.823C325 156.012 328.603 159.502 333.173 159.616L352.727 160.108C357.297 160.223 361.103 156.92 361.228 152.731C361.353 148.541 357.75 145.052 353.181 144.937Z" fill="#774340"/>
<path d="M368.235 143.148C366.938 142.741 365.581 142.517 364.21 142.485L331.875 141.673C330.078 141.628 328.289 141.908 326.611 142.497C324.932 143.085 323.396 143.972 322.091 145.105C320.786 146.239 319.737 147.597 319.004 149.102C318.271 150.607 317.869 152.23 317.82 153.878V154.235C317.82 156.042 318.247 157.829 319.071 159.471C319.895 161.114 321.096 162.573 322.593 163.749C319.889 162.907 317.54 161.309 315.876 159.181C314.213 157.052 313.318 154.498 313.318 151.879C313.318 151.764 313.318 151.637 313.318 151.522C313.419 148.198 314.955 145.046 317.588 142.759C320.22 140.472 323.735 139.236 327.359 139.323L359.695 140.135C362.835 140.207 365.852 141.271 368.235 143.148Z" fill="#774340"/>
<path d="M329.488 182.376C329.479 183.764 330.068 185.099 331.127 186.091C331.259 186.212 331.398 186.327 331.536 186.436C332.552 187.216 333.834 187.646 335.159 187.651H335.391C336.826 187.661 338.211 187.175 339.272 186.29C340.333 185.406 340.993 184.187 341.119 182.877C341.119 182.739 341.119 182.589 341.119 182.445C341.121 182.311 341.095 182.179 341.041 182.055C340.986 181.931 340.906 181.818 340.803 181.723C340.701 181.628 340.579 181.553 340.444 181.502C340.31 181.451 340.165 181.425 340.02 181.425L330.6 181.368C330.455 181.367 330.311 181.393 330.176 181.443C330.042 181.493 329.92 181.567 329.817 181.661C329.713 181.754 329.631 181.866 329.575 181.988C329.519 182.111 329.489 182.243 329.488 182.376Z" fill="#962F4A"/>
<path d="M335.285 186.845C335.283 187.116 335.31 187.386 335.366 187.651C336.8 187.66 338.185 187.173 339.246 186.289C340.306 185.404 340.966 184.186 341.094 182.877C340.685 182.767 340.263 182.709 339.838 182.704C338.637 182.704 337.484 183.139 336.632 183.915C335.779 184.69 335.295 185.744 335.285 186.845Z" fill="#E1617F"/>
<path d="M330.813 181.368C330.851 182.399 332.572 183.228 334.701 183.245C336.83 183.263 338.557 182.445 338.607 181.414L330.813 181.368Z" fill="white"/>
<path d="M337.363 187.34C336.676 186.99 335.902 186.807 335.115 186.811C334.387 186.802 333.667 186.95 333.011 187.243C333.695 187.508 334.429 187.647 335.172 187.651H335.404C336.072 187.655 336.736 187.55 337.363 187.34Z" fill="white"/>
<path d="M343.593 176.68C344.675 176.68 345.552 175.875 345.552 174.883C345.552 173.89 344.675 173.086 343.593 173.086C342.511 173.086 341.634 173.89 341.634 174.883C341.634 175.875 342.511 176.68 343.593 176.68Z" fill="#592702"/>
<path d="M325.111 176.242C326.193 176.242 327.071 175.437 327.071 174.445C327.071 173.452 326.193 172.648 325.111 172.648C324.029 172.648 323.152 173.452 323.152 174.445C323.152 175.437 324.029 176.242 325.111 176.242Z" fill="#592702"/>
<path d="M201.008 452.504L175.97 434.73C177.234 433.202 178.816 431.919 180.625 430.956C182.433 429.992 184.432 429.367 186.505 429.115C188.579 428.864 190.686 428.992 192.705 429.492C194.724 429.992 196.615 430.854 198.269 432.028C199.923 433.202 201.307 434.665 202.341 436.332C203.375 438 204.038 439.838 204.293 441.742C204.547 443.646 204.388 445.577 203.824 447.424C203.26 449.272 202.303 450.998 201.008 452.504Z" fill="#007391"/>
<path d="M171.021 435.479L174.161 432.086C174.813 431.376 175.737 430.921 176.743 430.814C177.749 430.707 178.762 430.956 179.574 431.51L212.99 454.324C213.534 454.696 213.989 455.166 214.328 455.705C214.667 456.244 214.881 456.841 214.959 457.46C215.037 458.078 214.976 458.704 214.78 459.3C214.583 459.896 214.256 460.449 213.819 460.924L208.041 467.219L171.021 435.479Z" fill="#FFF2EE"/>
<path d="M209.737 465.348L207.853 467.375C207.566 467.686 207.216 467.942 206.822 468.129C206.427 468.315 205.997 468.429 205.555 468.462C205.112 468.496 204.667 468.45 204.245 468.325C203.822 468.201 203.431 468.001 203.092 467.738L168.785 441.117C167.677 440.251 166.989 439.017 166.871 437.685C166.753 436.354 167.216 435.035 168.157 434.016C169.101 432.998 170.447 432.366 171.899 432.258C173.351 432.15 174.79 432.575 175.9 433.44L185.509 440.927C186.457 441.667 187.047 442.72 187.15 443.858C187.254 444.995 186.862 446.124 186.061 446.998L209.737 465.348Z" fill="#007391"/>
<path d="M369.862 175.522C369.876 176.258 369.653 176.982 369.221 177.603C368.789 178.224 368.166 178.714 367.432 179.012C367.255 179.077 367.063 179.101 366.874 179.083C366.685 179.064 366.503 179.003 366.345 178.905C366.187 178.808 366.058 178.676 365.968 178.522C365.878 178.368 365.831 178.196 365.83 178.022L365.736 173.155C365.732 172.972 365.779 172.79 365.871 172.628C365.964 172.466 366.101 172.328 366.268 172.227C366.435 172.127 366.627 172.066 366.826 172.052C367.025 172.038 367.225 172.071 367.407 172.147C368.125 172.435 368.739 172.906 369.174 173.504C369.609 174.102 369.848 174.803 369.862 175.522Z" fill="#F9A0B4"/>
<path d="M305.752 317.176L297.545 317.079L297.566 315.639C297.575 314.984 297.867 314.359 298.379 313.901C298.891 313.444 299.58 313.192 300.294 313.2L303.114 313.234C303.828 313.242 304.51 313.511 305.008 313.98C305.507 314.449 305.782 315.081 305.773 315.736L305.752 317.176Z" fill="#D7E2FF"/>
<path d="M313.962 317.275L305.755 317.177L305.775 315.738C305.785 315.082 306.077 314.457 306.589 314C307.101 313.543 307.79 313.29 308.504 313.299L311.317 313.332C312.032 313.341 312.713 313.609 313.212 314.078C313.711 314.548 313.985 315.179 313.976 315.835L313.956 317.274L313.962 317.275Z" fill="#D7E2FF"/>
<path d="M322.166 317.367L313.959 317.27L313.979 315.83C313.988 315.175 314.281 314.55 314.793 314.093C315.304 313.635 315.993 313.383 316.708 313.392L319.521 313.425C320.235 313.433 320.917 313.702 321.416 314.171C321.914 314.641 322.189 315.272 322.18 315.928L322.16 317.367L322.166 317.367Z" fill="#D7E2FF"/>
<path d="M330.376 317.46L322.169 317.363L322.189 315.923C322.198 315.268 322.491 314.643 323.003 314.186C323.514 313.728 324.203 313.476 324.918 313.485L327.743 313.518C328.458 313.526 329.139 313.795 329.638 314.264C330.137 314.734 330.412 315.365 330.402 316.021L330.382 317.46L330.376 317.46Z" fill="#D7E2FF"/>
<path d="M338.579 317.565L330.372 317.467L330.393 316.028C330.402 315.372 330.694 314.747 331.206 314.29C331.718 313.833 332.407 313.58 333.121 313.589L335.934 313.622C336.649 313.631 337.33 313.899 337.829 314.368C338.328 314.838 338.603 315.47 338.593 316.125L338.573 317.565L338.579 317.565Z" fill="#D7E2FF"/>
<path d="M346.783 317.657L338.576 317.56L338.596 316.12C338.605 315.465 338.898 314.84 339.41 314.383C339.922 313.925 340.61 313.673 341.325 313.682L344.138 313.715C344.852 313.724 345.534 313.992 346.033 314.461C346.531 314.931 346.806 315.562 346.797 316.218L346.777 317.657L346.783 317.657Z" fill="#D7E2FF"/>
<path d="M354.993 317.75L346.786 317.653L346.806 316.213C346.815 315.558 347.108 314.933 347.62 314.476C348.131 314.018 348.82 313.766 349.535 313.775L352.348 313.808C353.062 313.816 353.744 314.085 354.243 314.554C354.741 315.023 355.016 315.655 355.007 316.31L354.987 317.75L354.993 317.75Z" fill="#D7E2FF"/>
<path d="M275.511 320.83L362.505 321.86C364.35 321.882 365.865 320.528 365.889 318.836L365.889 318.83C365.913 317.138 364.437 315.749 362.592 315.727L275.597 314.696C273.752 314.674 272.237 316.028 272.213 317.721L272.213 317.726C272.189 319.418 273.666 320.808 275.511 320.83Z" fill="#64617F"/>
<path d="M297.944 321.123L219.785 320.201C218.192 320.183 216.651 319.677 215.408 318.764C214.164 317.851 213.289 316.583 212.921 315.162L198.477 259.479C198.229 258.509 198.225 257.5 198.465 256.529C198.705 255.558 199.183 254.649 199.863 253.872C200.542 253.096 201.405 252.471 202.387 252.045C203.369 251.619 204.443 251.404 205.529 251.415L274.514 252.227C276.106 252.248 277.646 252.754 278.889 253.667C280.132 254.58 281.008 255.847 281.378 257.267L297.944 321.123Z" fill="#7D7BA3"/>
<path d="M198.464 259.479L212.908 315.162C213.276 316.583 214.151 317.851 215.395 318.764C216.638 319.677 218.179 320.183 219.772 320.201L297.932 321.123L296.337 314.972L234.58 314.24C232.987 314.223 231.446 313.718 230.202 312.804C228.958 311.891 228.083 310.623 227.716 309.201L213.272 253.518C213.099 252.854 213.04 252.17 213.096 251.49L205.529 251.398C204.44 251.384 203.362 251.598 202.377 252.024C201.392 252.45 200.526 253.077 199.845 253.856C199.163 254.635 198.685 255.546 198.446 256.521C198.207 257.495 198.213 258.507 198.464 259.479Z" fill="#64617F"/>
<path d="M243.34 291.588C245.501 291.588 247.253 289.982 247.253 288C247.253 286.018 245.501 284.412 243.34 284.412C241.18 284.412 239.428 286.018 239.428 288C239.428 289.982 241.18 291.588 243.34 291.588Z" fill="#D7E2FF"/>
<path d="M238.028 293.31C238.633 294.203 239.45 294.96 240.417 295.525C241.383 296.09 242.476 296.449 243.614 296.576C244.752 296.702 245.907 296.593 246.993 296.257C248.079 295.92 249.069 295.364 249.89 294.63C250.711 293.896 251.342 293.003 251.737 292.015C252.132 291.028 252.28 289.972 252.171 288.926C252.062 287.879 251.698 286.868 251.107 285.967C250.516 285.066 249.711 284.299 248.754 283.721C249.67 285.082 250.053 286.69 249.84 288.278C249.627 289.866 248.83 291.34 247.58 292.457C246.331 293.574 244.704 294.267 242.967 294.422C241.231 294.577 239.489 294.185 238.028 293.31Z" fill="#D7E2FF"/>
<path d="M341.108 73.3048L335.302 71.1101C333.891 70.5792 332.609 69.7982 331.527 68.8119C330.446 67.8256 329.588 66.6532 329.001 65.3621C328.415 64.071 328.112 62.6865 328.11 61.2878C328.108 59.8892 328.407 58.5039 328.989 57.2114L334.836 59.4215C337.674 60.501 339.929 62.5695 341.105 65.1727C342.281 67.7759 342.282 70.7008 341.108 73.3048Z" fill="#6E8EC8"/>
<path d="M361.378 78.3412C361.378 83.3874 359.192 88.2269 355.302 91.7951C351.411 95.3633 346.134 97.3679 340.632 97.3679C335.13 97.3679 329.853 95.3633 325.963 91.7951C322.072 88.2269 319.886 83.3874 319.886 78.3412C319.885 77.6079 319.931 76.8751 320.025 76.1469C320.129 75.3082 320.294 74.4769 320.521 73.6587H360.75C360.977 74.4764 361.141 75.3079 361.24 76.1469C361.336 76.8749 361.383 77.6078 361.378 78.3412Z" fill="#6E8EC8"/>
<path d="M362.182 68.6767H320.05C318.551 68.6767 317.337 69.7907 317.337 71.1649V71.1706C317.337 72.5448 318.551 73.6587 320.05 73.6587H362.182C363.68 73.6587 364.895 72.5448 364.895 71.1706V71.1649C364.895 69.7907 363.68 68.6767 362.182 68.6767Z" fill="#6285B7"/>
<path d="M361.271 76.1469H320.025C320.129 75.3082 320.295 74.4769 320.521 73.6587H360.75C360.988 74.4757 361.162 75.3072 361.271 76.1469Z" fill="#4575AF"/>
<path d="M443.111 78.5582L438.541 76.8309C436.318 75.9904 434.549 74.3741 433.625 72.3378C432.701 70.3014 432.696 68.0117 433.613 65.9724L438.182 67.6997C440.406 68.5402 442.174 70.1565 443.099 72.1928C444.023 74.2292 444.027 76.5189 443.111 78.5582Z" fill="#6E8EC8"/>
<path d="M458.961 82.4823C459.004 84.4618 458.615 86.4291 457.819 88.2692C457.022 90.1093 455.834 91.7852 454.322 93.1988C452.811 94.6124 451.007 95.7354 449.017 96.5021C447.027 97.2687 444.89 97.6636 442.731 97.6636C440.572 97.6636 438.435 97.2687 436.445 96.5021C434.455 95.7354 432.651 94.6124 431.14 93.1988C429.628 91.7852 428.44 90.1093 427.643 88.2692C426.847 86.4291 426.458 84.4618 426.501 82.4823C426.498 81.9049 426.533 81.3279 426.607 80.7545C426.686 80.0978 426.816 79.4472 426.997 78.8078H458.465C458.796 80.0052 458.963 81.2356 458.961 82.4708V82.4823Z" fill="#6E8EC8"/>
<path d="M459.583 74.9258H426.626C425.454 74.9258 424.504 75.7974 424.504 76.8725C424.504 77.9477 425.454 78.8193 426.626 78.8193H459.583C460.755 78.8193 461.706 77.9477 461.706 76.8725C461.706 75.7974 460.755 74.9258 459.583 74.9258Z" fill="#6285B7"/>
<path d="M458.855 80.766H426.582C426.66 80.1093 426.791 79.4587 426.972 78.8193H458.44C458.624 79.4594 458.762 80.1096 458.855 80.766Z" fill="#4575AF"/>
<path d="M382.843 27.3693H392.671C394.135 27.3693 395.539 27.9027 396.574 28.8521C397.609 29.8016 398.191 31.0893 398.191 32.432V97.3938H377.323V32.432C377.323 31.0893 377.904 29.8016 378.939 28.8521C379.975 27.9027 381.379 27.3693 382.843 27.3693Z" fill="#6E8EC8"/>
<path d="M387.76 68.5443C391.478 68.5443 394.492 65.78 394.492 62.37C394.492 58.9601 391.478 56.1958 387.76 56.1958C384.042 56.1958 381.028 58.9601 381.028 62.37C381.028 65.78 384.042 68.5443 387.76 68.5443Z" fill="#4575AF"/>
<path d="M387.76 66.8279C387.514 66.8581 387.266 66.8716 387.019 66.8682C385.715 66.8682 384.464 66.3931 383.542 65.5474C382.62 64.7016 382.101 63.5546 382.101 62.3585C382.101 61.1625 382.62 60.0154 383.542 59.1697C384.464 58.3239 385.715 57.8488 387.019 57.8488C387.273 57.8474 387.528 57.8667 387.779 57.9064C386.621 58.0733 385.566 58.6138 384.805 59.4306C384.043 60.2474 383.625 61.2867 383.625 62.3614C383.625 63.4361 384.043 64.4754 384.805 65.2922C385.566 66.109 386.621 66.6495 387.779 66.8164L387.76 66.8279Z" fill="#6E8EC8"/>
<path d="M402.317 45.1721H409.626C410.717 45.1721 411.764 45.5695 412.535 46.277C413.306 46.9845 413.74 47.944 413.74 48.9446V97.3938H398.203V48.9446C398.203 47.944 398.637 46.9845 399.408 46.277C400.179 45.5695 401.226 45.1721 402.317 45.1721Z" fill="#6285B7"/>
<path d="M405.984 75.8762C408.759 75.8762 411.008 73.8133 411.008 71.2685C411.008 68.7238 408.759 66.6609 405.984 66.6609C403.209 66.6609 400.96 68.7238 400.96 71.2685C400.96 73.8133 403.209 75.8762 405.984 75.8762Z" fill="#6E8EC8"/>
<path d="M405.984 74.5918C405.795 74.6219 405.604 74.6373 405.412 74.6379C404.44 74.6379 403.507 74.2835 402.819 73.6527C402.131 73.0219 401.745 72.1664 401.745 71.2743C401.745 70.3822 402.131 69.5267 402.819 68.8959C403.507 68.2651 404.44 67.9107 405.412 67.9107C405.604 67.9094 405.795 67.9229 405.984 67.951C405.124 68.0787 404.342 68.4829 403.777 69.0912C403.212 69.6996 402.902 70.4725 402.902 71.2714C402.902 72.0703 403.212 72.8432 403.777 73.4516C404.342 74.06 405.124 74.4642 405.984 74.5918Z" fill="#E9F1FF"/>
<path d="M174.249 461.425H166.713V69.4543C166.853 58.6282 171.64 48.2891 180.036 40.6788C188.433 33.0685 199.762 28.8007 211.567 28.8007C223.372 28.8007 234.701 33.0685 243.098 40.6788C251.495 48.2891 256.282 58.6282 256.421 69.4543V114.528H248.86V69.4543C248.733 60.4539 244.745 51.8617 237.761 45.5383C230.776 39.2149 221.357 35.6693 211.542 35.6693C201.728 35.6693 192.308 39.2149 185.323 45.5383C178.339 51.8617 174.351 60.4539 174.224 69.4543L174.249 461.425Z" fill="#34629B"/>
<path d="M253.489 163.893C266.273 163.893 276.637 154.389 276.637 142.664C276.637 130.939 266.273 121.434 253.489 121.434C240.705 121.434 230.341 130.939 230.341 142.664C230.341 154.389 240.705 163.893 253.489 163.893Z" fill="#BBD7FF"/>
<path d="M276.637 142.664C276.636 145.806 275.874 148.909 274.408 151.749C272.941 154.588 270.805 157.094 268.155 159.086C265.504 161.077 262.405 162.504 259.08 163.263C255.756 164.023 252.289 164.097 248.93 163.479C254.174 162.514 258.892 159.913 262.282 156.118C265.672 152.324 267.525 147.569 267.525 142.664C267.525 137.758 265.672 133.004 262.282 129.209C258.892 125.414 254.174 122.814 248.93 121.849C252.289 121.231 255.756 121.304 259.08 122.064C262.405 122.824 265.504 124.251 268.155 126.242C270.805 128.233 272.941 130.739 274.408 133.579C275.874 136.419 276.636 139.521 276.637 142.664Z" fill="#D4E6FC"/>
<path d="M301.85 142.664H203.457C203.457 111.562 225.493 86.3931 252.654 86.3931C279.814 86.3931 301.85 111.585 301.85 142.664Z" fill="#547DBA"/>
<path d="M301.85 142.664H203.457C203.457 111.562 225.493 86.3931 252.654 86.3931C279.814 86.3931 301.85 111.585 301.85 142.664Z" fill="#547DBA"/>
<path d="M301.844 142.664H285.284C285.284 114.816 267.6 91.6918 244.37 87.1937C247.085 86.6611 249.853 86.3928 252.629 86.3931C279.827 86.3931 301.844 111.585 301.844 142.664Z" fill="#34629B"/>
<path d="M214.315 456.132H126.647C123.463 456.132 120.882 458.5 120.882 461.42C120.882 464.34 123.463 466.707 126.647 466.707H214.315C217.499 466.707 220.08 464.34 220.08 461.42C220.08 458.5 217.499 456.132 214.315 456.132Z" fill="#547DBA"/>
<path d="M220.08 461.425C220.08 462.828 219.472 464.172 218.391 465.164C217.31 466.156 215.844 466.713 214.315 466.713H197.673C198.446 466.736 199.217 466.616 199.939 466.361C200.661 466.106 201.32 465.72 201.876 465.226C202.433 464.733 202.875 464.142 203.177 463.488C203.479 462.835 203.635 462.132 203.635 461.422C203.635 460.713 203.479 460.01 203.177 459.357C202.875 458.703 202.433 458.112 201.876 457.618C201.32 457.125 200.661 456.739 199.939 456.484C199.217 456.228 198.446 456.109 197.673 456.132H214.321C215.849 456.135 217.314 456.694 218.394 457.687C219.473 458.679 220.08 460.023 220.08 461.425Z" fill="#34629B"/>
<path d="M425.866 317.178V467.559H371.947V366.6C371.948 360.108 373.343 353.679 376.054 347.681C378.764 341.684 382.736 336.234 387.743 331.645C392.75 327.055 398.694 323.415 405.236 320.933C411.777 318.451 418.787 317.175 425.866 317.178Z" fill="#BBD7FF"/>
<path d="M425.866 317.178H561.764V459.628C561.764 461.733 560.852 463.752 559.229 465.24C557.606 466.729 555.405 467.565 553.11 467.565H425.866V317.178Z" fill="#34629B"/>
<path d="M403.861 364.25C403.861 360.984 400.975 358.335 397.415 358.335C393.855 358.335 390.969 360.984 390.969 364.25V440.61C390.969 443.877 393.855 446.525 397.415 446.525C400.975 446.525 403.861 443.877 403.861 440.61V364.25Z" fill="#D4E6FC"/>
</svg>
