<svg width="246" height="255" viewBox="0 0 246 255" fill="none" xmlns="http://www.w3.org/2000/svg">
<path d="M181.292 29.7155H166.29C166.29 27.7261 167.08 25.8182 168.487 24.4115C169.894 23.0048 171.802 22.2145 173.791 22.2145C175.78 22.2145 177.688 23.0048 179.095 24.4115C180.502 25.8182 181.292 27.7261 181.292 29.7155Z" fill="#EBECFD"/>
<path d="M172.862 29.7155H151.341C151.341 26.8615 152.474 24.1244 154.492 22.1064C156.51 20.0883 159.248 18.9546 162.102 18.9546C164.955 18.9546 167.693 20.0883 169.711 22.1064C171.729 24.1244 172.862 26.8615 172.862 29.7155Z" fill="#EBECFD"/>
<path d="M163.395 29.7155H137.121C137.121 26.2314 138.505 22.89 140.969 20.4263C143.433 17.9627 146.774 16.5786 150.258 16.5786C153.742 16.5786 157.084 17.9627 159.547 20.4263C162.011 22.89 163.395 26.2314 163.395 29.7155Z" fill="#EBECFD"/>
<path d="M234.222 111.362L240.962 112.397C241.625 112.499 242.262 112.731 242.835 113.079C243.408 113.427 243.907 113.885 244.303 114.426C244.699 114.968 244.984 115.582 245.142 116.234C245.3 116.885 245.328 117.562 245.224 118.225L238.483 117.189C237.82 117.088 237.184 116.856 236.611 116.508C236.038 116.16 235.539 115.702 235.143 115.16C234.747 114.619 234.462 114.005 234.304 113.353C234.146 112.701 234.118 112.025 234.222 111.362Z" fill="#153E63"/>
<path d="M245.204 118.162C245.043 117.088 244.541 116.095 243.774 115.326C243.006 114.558 242.013 114.056 240.939 113.893L234.196 112.859C234.119 112.356 234.119 111.845 234.196 111.343L240.939 112.376C242.27 112.582 243.466 113.305 244.265 114.389C245.065 115.474 245.402 116.83 245.204 118.162Z" fill="#0C314C"/>
<path d="M161.769 73.1401C173.089 73.1401 182.265 63.9638 182.265 52.6442C182.265 41.3245 173.089 32.1482 161.769 32.1482C150.449 32.1482 141.273 41.3245 141.273 52.6442C141.273 63.9638 150.449 73.1401 161.769 73.1401Z" fill="#153E63"/>
<path d="M143.945 53.5281C143.853 57.0983 144.697 60.6303 146.393 63.7735C148.089 66.9166 150.577 69.5615 153.611 71.4454C151.025 70.3241 148.697 68.6815 146.775 66.6201C144.852 64.5587 143.375 62.123 142.436 59.465C141.497 56.807 141.116 53.9839 141.317 51.1721C141.519 48.3604 142.298 45.6203 143.606 43.1233C144.914 40.6263 146.724 38.4259 148.921 36.6596C151.118 34.8933 153.655 33.5992 156.375 32.858C159.095 32.1168 161.938 31.9445 164.728 32.3519C167.517 32.7593 170.192 33.7376 172.587 35.2257C169.507 33.8956 166.149 33.3411 162.805 33.6109C159.462 33.8806 156.236 34.9663 153.409 36.7729C150.583 38.5794 148.243 41.0516 146.594 43.9728C144.946 46.8939 144.039 50.1749 143.953 53.5281H143.945Z" fill="#396E96"/>
<path d="M194.769 48.7593L190.914 48.6624C181.161 48.4172 173.055 56.1252 172.81 65.8787L172.81 65.8828C172.565 75.6363 180.273 83.7418 190.026 83.987L193.881 84.0839C203.635 84.3291 211.74 76.6211 211.985 66.8676L211.985 66.8635C212.231 57.11 204.523 49.0045 194.769 48.7593Z" fill="#153E63"/>
<path d="M208.816 44.9656L204.961 44.8687C195.208 44.6236 187.102 52.3316 186.857 62.0851L186.857 62.0891C186.612 71.8426 194.32 79.9482 204.073 80.1934L207.928 80.2903C217.681 80.5355 225.787 72.8274 226.032 63.0739L226.032 63.0699C226.277 53.3164 218.569 45.2108 208.816 44.9656Z" fill="#153E63"/>
<path d="M159.94 59.4883L159.588 73.4564C159.536 75.4894 160.295 77.4593 161.696 78.9329C163.098 80.4066 165.027 81.2631 167.06 81.3142C169.093 81.3653 171.063 80.6067 172.537 79.2053C174.01 77.8039 174.867 75.8745 174.918 73.8416L175.271 59.8735C175.296 58.8669 175.123 57.8652 174.761 56.9255C174.399 55.9859 173.856 55.1267 173.162 54.397C172.468 53.6673 171.637 53.0815 170.717 52.6729C169.797 52.2643 168.805 52.041 167.798 52.0157C166.792 51.9904 165.79 52.1637 164.85 52.5255C163.91 52.8874 163.051 53.4307 162.322 54.1246C161.592 54.8185 161.006 55.6493 160.598 56.5697C160.189 57.49 159.966 58.4817 159.94 59.4883Z" fill="#F5A491"/>
<path d="M159.94 59.4883L159.669 70.233C164.702 71.4186 169.929 71.5168 175.003 70.5209L175.271 59.8735C175.322 57.8406 174.563 55.8706 173.162 54.397C171.76 52.9234 169.831 52.0668 167.798 52.0157C165.765 51.9646 163.795 52.7232 162.322 54.1246C160.848 55.526 159.991 57.4554 159.94 59.4883Z" fill="#EF927F"/>
<path d="M149.694 28.0571L149.658 32.1117L149.634 34.8972L149.48 51.3994C149.442 55.6332 151.086 59.709 154.051 62.7316C157.015 65.7542 161.059 67.4766 165.292 67.5205C168.782 67.5563 172.244 66.9044 175.481 65.6019C178.719 64.2993 181.668 62.3717 184.16 59.9292C186.652 57.4867 188.639 54.5771 190.006 51.3666C191.374 48.1562 192.095 44.7077 192.13 41.2183L192.235 29.6019C192.271 25.7668 190.782 22.0746 188.095 19.3373C185.409 16.6 181.745 15.0418 177.91 15.0054L166.022 14.9L163.139 14.8716C161.39 14.8529 159.655 15.1793 158.032 15.8321C156.409 16.4849 154.931 17.4513 153.682 18.676C152.434 19.9007 151.439 21.3597 150.754 22.9695C150.07 24.5792 149.71 26.3081 149.694 28.0571Z" fill="#F5A491"/>
<path d="M166.764 67.5001C166.282 67.5285 165.795 67.5366 165.309 67.5326C161.074 67.4887 157.03 65.7658 154.065 62.7423C151.1 59.7188 149.457 55.642 149.496 51.4075L149.646 34.9134L149.67 32.1238L149.703 28.0692C149.719 26.3217 150.08 24.5945 150.763 22.9863C151.447 21.378 152.441 19.9203 153.689 18.6963C154.936 17.4722 156.413 16.5059 158.033 15.8524C159.654 15.199 161.388 14.8712 163.135 14.8877H164.652C161.266 15.0602 158.074 16.5188 155.727 18.9656C153.381 21.4125 152.057 24.6629 152.026 28.053L151.989 32.1076L151.961 34.8972L151.811 51.3912C151.769 55.4796 153.296 59.4285 156.078 62.425C158.86 65.4216 162.684 67.2379 166.764 67.5001Z" fill="#FFC4AF"/>
<path d="M149.694 28.057L149.658 32.1116L149.634 34.8971C152.324 36.3988 155.457 36.9063 158.484 36.3308C161.511 35.7553 164.24 34.1334 166.191 31.7491C168.143 29.3647 169.194 26.3699 169.16 23.2888C169.126 20.2077 168.01 17.2367 166.006 14.8958L163.123 14.8674C161.375 14.8508 159.641 15.1789 158.02 15.833C156.399 16.487 154.922 17.4541 153.675 18.6791C152.428 19.904 151.435 21.3627 150.751 22.9719C150.068 24.581 149.709 26.309 149.694 28.057Z" fill="#EF927F"/>
<path d="M157.639 44.965C157.663 43.9868 157.004 43.1767 156.167 43.1556C155.33 43.1346 154.631 43.9105 154.607 44.8888C154.582 45.8671 155.241 46.6772 156.078 46.6982C156.915 46.7192 157.614 45.9433 157.639 44.965Z" fill="#230D30"/>
<path d="M169.729 45.2684C169.754 44.2902 169.095 43.4801 168.258 43.459C167.42 43.438 166.722 44.2139 166.697 45.1922C166.673 46.1705 167.331 46.9806 168.169 47.0016C169.006 47.0227 169.704 46.2467 169.729 45.2684Z" fill="#230D30"/>
<path d="M196.857 55.1499C204.549 55.1499 210.785 48.9143 210.785 41.2224C210.785 33.5304 204.549 27.2949 196.857 27.2949C189.165 27.2949 182.93 33.5304 182.93 41.2224C182.93 48.9143 189.165 55.1499 196.857 55.1499Z" fill="#153E63"/>
<path d="M226.03 62.6225V63.0766C225.957 66.0663 225.126 68.9885 223.614 71.5687C222.102 74.1489 219.959 76.3025 217.386 77.8272C219.413 76.2196 221.062 74.1859 222.216 71.8702C223.37 69.5544 224.001 67.0133 224.064 64.4267C224.064 64.2727 224.064 64.1227 224.064 63.9726C224.062 59.8614 222.627 55.8794 220.004 52.7131C217.382 49.5467 213.737 47.3944 209.698 46.6271C209.232 46.5379 208.758 46.469 208.279 46.4203C208.417 45.9417 208.528 45.4557 208.612 44.9647C208.73 44.295 208.798 43.6173 208.814 42.9374C208.879 40.4722 208.287 38.0343 207.099 35.873C205.912 33.7117 204.171 31.9046 202.056 30.6367C199.941 29.3688 197.527 28.6856 195.062 28.6569C192.596 28.6283 190.166 29.2552 188.022 30.4736C190.317 28.5883 193.154 27.4859 196.12 27.3276C199.085 27.1693 202.024 27.9633 204.506 29.5936C206.988 31.2239 208.884 33.6052 209.916 36.3896C210.949 39.1739 211.064 42.2155 210.246 45.0701C214.578 45.535 218.586 47.5841 221.499 50.8238C224.412 54.0635 226.026 58.2654 226.03 62.6225Z" fill="#0C314C"/>
<path d="M211.73 89.5409C218.678 89.5409 224.311 83.908 224.311 76.9595C224.311 70.011 218.678 64.3781 211.73 64.3781C204.781 64.3781 199.148 70.011 199.148 76.9595C199.148 83.908 204.781 89.5409 211.73 89.5409Z" fill="#153E63"/>
<path d="M218.343 99.8356C223.934 99.8356 228.467 95.3027 228.467 89.7112C228.467 84.1197 223.934 79.5869 218.343 79.5869C212.751 79.5869 208.218 84.1197 208.218 89.7112C208.218 95.3027 212.751 99.8356 218.343 99.8356Z" fill="#153E63"/>
<path d="M222.365 106.712C226.902 106.712 230.579 103.034 230.579 98.4975C230.579 93.9607 226.902 90.2829 222.365 90.2829C217.828 90.2829 214.15 93.9607 214.15 98.4975C214.15 103.034 217.828 106.712 222.365 106.712Z" fill="#153E63"/>
<path d="M230.385 113.536C234.33 113.536 237.529 110.337 237.529 106.392C237.529 102.446 234.33 99.2477 230.385 99.2477C226.439 99.2477 223.241 102.446 223.241 106.392C223.241 110.337 226.439 113.536 230.385 113.536Z" fill="#153E63"/>
<path d="M235.19 111.671C235.696 110.712 235.973 109.649 236.001 108.565C236.042 106.852 235.467 105.18 234.381 103.854C233.295 102.529 231.769 101.636 230.081 101.34C229.735 101.283 229.385 101.25 229.035 101.243H229.027C229.049 101.062 229.061 100.881 229.063 100.699C229.13 98.6086 228.383 96.5737 226.979 95.0228C226.84 94.8622 226.693 94.7093 226.537 94.5646C226.788 93.7176 226.925 92.8408 226.943 91.9575C226.943 91.8642 226.943 91.7629 226.943 91.6696C226.935 90.0331 226.53 88.4229 225.763 86.9773C224.996 85.5317 223.89 84.2937 222.539 83.3699C222.385 83.2644 222.231 83.1631 222.069 83.0658C222.353 82.2526 222.549 81.4112 222.653 80.556C222.709 80.1296 222.743 79.7006 222.754 79.2707C222.818 76.728 222.109 74.2257 220.72 72.0946C219.332 69.9634 217.33 68.3036 214.978 67.3345C212.626 66.3653 210.036 66.1325 207.549 66.6666C205.062 67.2008 202.796 68.4769 201.05 70.3263C202.664 67.662 205.21 65.6922 208.195 64.7987C211.179 63.9052 214.389 64.1517 217.201 65.4905C220.014 66.8292 222.23 69.1647 223.418 72.0442C224.607 74.9237 224.684 78.142 223.634 81.075C225.53 82.239 226.99 83.9942 227.789 86.07C228.588 88.1458 228.683 90.4269 228.058 92.5616C228.882 93.3523 229.532 94.3063 229.967 95.3626C230.402 96.4189 230.612 97.5543 230.584 98.6962C230.584 98.8787 230.584 99.0652 230.551 99.2395C231.977 99.2752 233.359 99.737 234.52 100.565C235.681 101.394 236.567 102.551 237.065 103.888C237.562 105.224 237.648 106.679 237.311 108.065C236.973 109.451 236.229 110.704 235.173 111.663L235.19 111.671Z" fill="#0C314C"/>
<path d="M190.901 52.5954C194.632 52.5954 197.656 49.5711 197.656 45.8405C197.656 42.1098 194.632 39.0855 190.901 39.0855C187.171 39.0855 184.146 42.1098 184.146 45.8405C184.146 49.5711 187.171 52.5954 190.901 52.5954Z" fill="#F5A491"/>
<path d="M192.941 45.9622C192.925 46.5361 192.742 47.0928 192.412 47.5629C192.083 48.033 191.622 48.3957 191.088 48.6057C190.96 48.6515 190.823 48.6653 190.689 48.6459C190.554 48.6265 190.427 48.5746 190.317 48.4946C190.208 48.4146 190.119 48.309 190.06 48.1871C190.001 48.0651 189.972 47.9304 189.977 47.7948L190.07 43.9997C190.075 43.8591 190.116 43.7219 190.188 43.6008C190.259 43.4796 190.36 43.3783 190.481 43.3058C190.602 43.2334 190.738 43.1922 190.879 43.1859C191.02 43.1796 191.16 43.2085 191.286 43.2699C191.791 43.513 192.215 43.896 192.509 44.3733C192.802 44.8506 192.952 45.4021 192.941 45.9622Z" fill="#EF927F"/>
<path d="M238.778 109.647L238.776 109.644C238.287 108.981 237.353 108.84 236.69 109.329L232.539 112.39C231.876 112.879 231.735 113.813 232.224 114.477L232.226 114.48C232.715 115.143 233.649 115.284 234.313 114.795L238.463 111.734C239.126 111.245 239.268 110.311 238.778 109.647Z" fill="#E1160C"/>
<path d="M187.844 37.3786C195.948 37.3786 202.518 30.8091 202.518 22.7051C202.518 14.6011 195.948 8.03149 187.844 8.03149C179.74 8.03149 173.171 14.6011 173.171 22.7051C173.171 30.8091 179.74 37.3786 187.844 37.3786Z" fill="#153E63"/>
<path d="M201.05 29.1437C201.293 28.1459 201.428 27.1252 201.455 26.0987C201.539 22.7509 200.475 19.4753 198.44 16.8157C196.405 14.1562 193.521 12.2727 190.268 11.4781C187.015 10.6835 183.588 11.0256 180.556 12.4475C177.524 13.8695 175.07 16.2858 173.6 19.2951C174.076 17.2851 174.971 15.3983 176.226 13.7578C177.481 12.1174 179.068 10.7605 180.884 9.77572C182.699 8.79098 184.702 8.20063 186.762 8.0433C188.821 7.88597 190.891 8.16521 192.835 8.86275C194.779 9.56028 196.554 10.6604 198.044 12.0911C199.533 13.5218 200.704 15.251 201.48 17.1654C202.255 19.0797 202.618 21.1363 202.544 23.2004C202.47 25.2646 201.961 27.2898 201.05 29.1437Z" fill="#0C314C"/>
<path d="M165.588 29.3749C173.692 29.3749 180.262 22.8053 180.262 14.7013C180.262 6.59729 173.692 0.02771 165.588 0.02771C157.484 0.02771 150.915 6.59729 150.915 14.7013C150.915 22.8053 157.484 29.3749 165.588 29.3749Z" fill="#153E63"/>
<path d="M149.755 40.1358C157.859 40.1358 164.429 33.5662 164.429 25.4622C164.429 17.3582 157.859 10.7886 149.755 10.7886C141.651 10.7886 135.082 17.3582 135.082 25.4622C135.082 33.5662 141.651 40.1358 149.755 40.1358Z" fill="#153E63"/>
<path d="M178.462 7.66251C176.778 6.23128 174.792 5.19885 172.653 4.64226C170.514 4.08568 168.277 4.01931 166.109 4.4481C163.941 4.87689 161.898 5.78978 160.132 7.11864C158.366 8.4475 156.923 10.158 155.91 12.1226C155.434 13.0427 155.06 14.0121 154.795 15.0135C154.39 14.9648 153.94 14.9324 153.498 14.9202C152.638 14.899 151.778 14.9519 150.927 15.0784C148.595 15.4345 146.382 16.3473 144.478 17.7396C142.573 19.1319 141.031 20.9626 139.984 23.0768C138.937 25.191 138.414 27.5264 138.461 29.8853C138.507 32.2442 139.121 34.5573 140.251 36.6285C137.939 34.6629 136.294 32.0288 135.541 29.089C134.788 26.1493 134.966 23.0485 136.048 20.2137C137.131 17.3788 139.066 14.9494 141.587 13.26C144.108 11.5707 147.091 10.7044 150.124 10.7805C150.558 10.7886 150.991 10.8198 151.422 10.8738C152.18 8.04325 153.768 5.50468 155.983 3.58523C158.197 1.66579 160.935 0.453443 163.844 0.104432C166.754 -0.244579 169.701 0.285755 172.306 1.62707C174.912 2.96838 177.056 5.05921 178.462 7.63008V7.66251Z" fill="#396E96"/>
<path d="M167.798 24.5418C172.129 24.5418 175.64 21.031 175.64 16.7002C175.64 12.3694 172.129 8.85864 167.798 8.85864C163.467 8.85864 159.957 12.3694 159.957 16.7002C159.957 21.031 163.467 24.5418 167.798 24.5418Z" fill="#396E96"/>
<path d="M164.59 81.44L164.588 81.4367C160.435 75.7377 152.449 74.4842 146.75 78.6369L113.702 102.718C108.003 106.871 106.75 114.857 110.902 120.556L110.905 120.559C115.057 126.258 123.044 127.512 128.743 123.359L161.79 99.2782C167.489 95.1254 168.743 87.139 164.59 81.44Z" fill="#F5A491"/>
<path d="M94.8532 82.8732C100.085 85.3019 106.296 83.0292 108.725 77.797C111.153 72.5648 108.881 66.3544 103.648 63.9257L95.3588 60.0779C90.1266 57.6492 83.9162 59.9218 81.4875 65.154C79.0588 70.3863 81.3315 76.5966 86.5637 79.0253L94.8532 82.8732Z" fill="#EF948C"/>
<path d="M109.446 69.9945C106.86 64.7753 100.535 62.6395 95.3163 65.2242C90.0981 67.8089 87.9636 74.1352 90.5487 79.3544L110.671 119.979C113.256 125.198 119.582 127.334 124.8 124.749C130.018 122.164 132.153 115.838 129.567 110.619L109.446 69.9945Z" fill="#F5A491"/>
<path d="M94.8532 82.8732C100.085 85.3019 106.296 83.0292 108.725 77.797C111.153 72.5648 108.881 66.3544 103.648 63.9257L95.3588 60.0779C90.1266 57.6492 83.9162 59.9218 81.4875 65.154C79.0588 70.3863 81.3315 76.5966 86.5637 79.0253L94.8532 82.8732Z" fill="#F5A491"/>
<path d="M165.694 94.6619C164.788 96.4951 163.449 98.0802 161.793 99.28L128.752 123.376C126.573 124.964 123.944 125.816 121.247 125.809C119.277 126.021 117.287 125.673 115.506 124.805C113.725 123.937 112.224 122.585 111.176 120.903V120.879C107.17 115.073 91.5272 81.3101 91.5272 81.3101L86.5887 79.0111C85.1263 78.3327 83.8409 77.3248 82.8331 76.0664C81.8254 74.8081 81.1227 73.3334 80.7802 71.7581C80.4378 70.1828 80.4647 68.5495 80.8591 66.9863C81.2534 65.4232 82.0044 63.9726 83.0531 62.7482C83.0456 62.7613 83.0388 62.7748 83.0329 62.7887C82.4548 64.0322 82.1276 65.3774 82.0697 66.7474C82.0118 68.1174 82.2245 69.4854 82.6955 70.7732C83.1666 72.0609 83.8868 73.2433 84.815 74.2526C85.7432 75.2619 86.8612 76.0784 88.1052 76.6554L89.8486 77.4663L93.0477 78.9503L95.0142 82.9238C95.0142 82.9238 112.489 118.227 112.66 118.511C113.853 120.049 115.383 121.292 117.131 122.147C118.88 123.002 120.801 123.444 122.748 123.441C124.553 123.441 126.337 123.057 127.982 122.314C128.781 121.951 129.542 121.508 130.253 120.992L163.302 96.9122C164.194 96.2694 164.998 95.5129 165.694 94.6619Z" fill="#EF927F"/>
<path d="M98.6366 69.9281C100.53 70.8068 102.777 69.9846 103.655 68.0916C104.534 66.1985 103.712 63.9516 101.819 63.0729L82.6321 54.1668C80.7391 53.2881 78.4922 54.1104 77.6135 56.0034C76.7348 57.8964 77.557 60.1433 79.45 61.022L98.6366 69.9281Z" fill="#F5A491"/>
<path d="M100.015 69.239C101.126 71.0062 103.458 71.5387 105.225 70.4284C106.993 69.3181 107.525 66.9855 106.415 65.2183L100.157 55.2585C99.0471 53.4913 96.7145 52.9588 94.9473 54.0691C93.1801 55.1794 92.6476 57.512 93.7579 59.2792L100.015 69.239Z" fill="#F5A491"/>
<path d="M100.885 77.1338C104.997 77.1338 108.329 73.8009 108.329 69.6896C108.329 65.5783 104.997 62.2454 100.885 62.2454C96.7739 62.2454 93.441 65.5783 93.441 69.6896C93.441 73.8009 96.7739 77.1338 100.885 77.1338Z" fill="#F5A491"/>
<path d="M130.229 147.391L80.0038 143.844C70.783 143.193 62.7802 150.139 62.129 159.359C61.4778 168.578 68.4249 176.58 77.6457 177.231L127.871 180.779C137.091 181.43 145.094 174.484 145.745 165.264C146.397 156.045 139.449 148.043 130.229 147.391Z" fill="#EF927F"/>
<path d="M2.14371 241.077C0.882148 239.239 0.285018 237.026 0.450874 234.803C0.616731 232.579 1.53566 230.479 3.05599 228.849L28.8351 201.225C29.6539 200.346 30.6597 199.663 31.7782 199.225C32.8967 198.787 34.0992 198.606 35.297 198.696C36.4947 198.785 37.657 199.143 38.698 199.742C39.739 200.341 40.632 201.167 41.3111 202.157L47.4335 211.077C48.7198 212.951 49.5627 215.094 49.8983 217.342C50.2339 219.59 50.0534 221.885 49.3704 224.053C48.6874 226.221 47.5199 228.206 45.9564 229.855C44.3929 231.505 42.4743 232.778 40.3461 233.576L13.9912 244.584C11.9139 245.449 9.6025 245.572 7.44512 244.933C5.28775 244.295 3.41582 242.933 2.14371 241.077Z" fill="#EF927F"/>
<path d="M42.1625 221.291L87.8618 172.636C94.0734 166.023 94.3492 155.035 88.0037 148.414C81.5934 141.707 71.4975 142.668 65.8819 150.173L24.7764 205.068C21.7314 209.123 23.1546 215.789 27.8052 220.07C32.4112 224.312 38.7607 224.912 42.1625 221.291Z" fill="#EF927F"/>
<path d="M139.029 172.82L93.5712 169.992C84.3453 169.418 76.4009 176.431 75.827 185.656C75.2531 194.881 82.2669 202.824 91.4929 203.398L136.95 206.226C146.176 206.8 154.121 199.787 154.694 190.563C155.268 181.338 148.255 173.394 139.029 172.82Z" fill="#F5A491"/>
<path d="M46.355 233.572L100.427 199.137C107.725 194.547 109.655 184.52 104.348 176.978C99.0445 169.433 88.9404 167.855 82.1692 173.175L31.4868 212.423C27.2011 215.781 27.0592 222.965 31.0084 228.565C34.9495 234.18 41.745 236.471 46.355 233.572Z" fill="#F5A491"/>
<path d="M1.22741 249.377C0.150655 247.43 -0.231612 245.175 0.143458 242.982C0.518528 240.789 1.62861 238.789 3.29119 237.31L33.5263 210.85C34.4246 210.053 35.4905 209.468 36.6453 209.138C37.8001 208.808 39.0143 208.741 40.1982 208.943C41.3821 209.145 42.5056 209.611 43.4856 210.305C44.4656 210.999 45.2772 211.905 45.8604 212.955L51.1111 222.39C52.2154 224.376 52.853 226.588 52.9754 228.858C53.0978 231.128 52.7019 233.396 51.8177 235.49C50.9334 237.584 49.5841 239.449 47.8719 240.944C46.1597 242.439 44.1296 243.524 41.9355 244.118L12.7019 253.975C10.5522 254.643 8.23793 254.551 6.14828 253.713C4.05862 252.876 2.32096 251.345 1.22741 249.377Z" fill="#F5A491"/>
<path d="M154.734 189.519C154.734 189.86 154.734 190.216 154.702 190.565C154.423 194.995 152.398 199.133 149.07 202.07C145.742 205.007 141.385 206.502 136.955 206.228L93.5383 203.524L52.9924 229.335C53.0649 232.681 52.0146 235.955 50.009 238.635C48.0035 241.314 45.1583 243.245 41.9274 244.118L12.7059 253.975C11.04 254.491 9.26653 254.554 7.5684 254.156C5.87027 253.758 4.30897 252.915 3.04552 251.712C1.78208 250.51 0.862228 248.993 0.380843 247.316C-0.100543 245.64 -0.126037 243.866 0.306991 242.176C0.639946 243.46 1.23022 244.663 2.04202 245.712C2.85381 246.761 3.87021 247.635 5.0296 248.279C6.18898 248.924 7.46719 249.326 8.78672 249.462C10.1063 249.597 11.4396 249.464 12.7059 249.069L41.9355 239.212C46.8821 237.87 49.5703 234.237 50.9894 229.826C51.3949 228.549 50.3934 225.723 50.3934 225.723L87.3104 202.587L93.5383 198.622L100.545 199.055L136.955 201.326C141.144 201.584 145.277 200.26 148.536 197.617C151.796 194.973 153.944 191.202 154.556 187.05C154.675 187.867 154.735 188.693 154.734 189.519Z" fill="#EF927F"/>
<path d="M188.324 78.7861C181.944 75.7036 174.274 78.3762 171.191 84.7556C168.109 91.135 170.781 98.8054 177.161 101.888L214.143 119.758C220.522 122.84 228.192 120.168 231.275 113.788C234.358 107.409 231.685 99.7385 225.306 96.6559L188.324 78.7861Z" fill="#F5A491"/>
<path d="M231.054 102.191C231.84 103.677 232.327 105.304 232.485 106.977C232.642 108.651 232.469 110.34 231.974 111.947C232.595 109.403 232.308 106.723 231.163 104.369C231.046 104.121 230.92 103.882 230.79 103.651C229.58 101.54 227.716 99.8803 225.479 98.9233C224.428 97.8335 223.193 96.9384 221.83 96.2797L184.832 78.403C184.029 78.0123 183.188 77.7078 182.322 77.4947C184.393 77.4272 186.449 77.8671 188.31 78.776L225.292 96.6162C227.761 97.8092 229.78 99.7635 231.054 102.191Z" fill="#FFC4AF"/>
<path d="M74.8241 196.825C76.8054 195.423 77.2755 192.681 75.8741 190.7C74.4727 188.719 71.7305 188.249 69.7492 189.65L56.3371 199.137C54.3559 200.538 53.8858 203.28 55.2872 205.261C56.6886 207.243 59.4307 207.713 61.412 206.311L74.8241 196.825Z" fill="#FFC4AF"/>
<path d="M185.334 164.861L145.636 162.447L149.329 101.72L189.027 104.134L185.334 164.861Z" fill="white"/>
<path d="M189.012 104.146L149.317 101.733L148.385 117.1L188.323 115.507L189.012 104.146Z" fill="#EFD6D8"/>
<path d="M192.485 99.2109L139.828 96.0087L139.86 95.4826C140.256 88.9597 143.228 82.8617 148.121 78.5298C153.013 74.198 159.427 71.9872 165.95 72.3839L169.414 72.5945C175.937 72.9912 182.035 75.9628 186.367 80.8556C190.698 85.7484 192.909 92.1617 192.513 98.6845L192.481 99.2106L192.485 99.2109Z" fill="#F5A491"/>
<path d="M148.293 109.823L181.588 111.848C188.953 112.295 195.287 106.688 195.735 99.3233L195.735 99.3193C196.183 91.9544 190.575 85.621 183.211 85.1731L149.915 83.1483C142.55 82.7004 136.217 88.3077 135.769 95.6726L135.769 95.6766C135.321 103.041 140.928 109.375 148.293 109.823Z" fill="white"/>
<path d="M195.722 99.3327C195.516 102.727 194.022 105.914 191.547 108.246C189.071 110.577 185.799 111.876 182.399 111.878C182.123 111.878 181.847 111.878 181.588 111.878L178.19 111.667C180.718 110.379 182.821 108.389 184.247 105.935C185.672 103.481 186.359 100.669 186.225 97.8342C186.091 94.9999 185.142 92.2644 183.491 89.9561C181.841 87.6479 179.56 85.865 176.921 84.8213L183.21 85.2024C186.739 85.4258 190.037 87.0376 192.382 89.6855C194.727 92.3334 195.927 95.8019 195.722 99.3327Z" fill="#EFD6D8"/>
<path d="M114.622 141.817L163.333 144.848C169.382 145.224 175.034 147.988 179.045 152.531C183.056 157.074 185.098 163.025 184.722 169.074L184.178 177.815C183.657 186.187 179.832 194.008 173.544 199.56C167.256 205.111 159.021 207.937 150.649 207.416L104.836 204.566C104.753 204.561 104.676 204.523 104.621 204.461C104.566 204.399 104.538 204.318 104.544 204.235L108.067 147.608C108.168 145.971 108.917 144.44 110.147 143.354C111.377 142.268 112.988 141.715 114.626 141.817L114.622 141.817Z" fill="#58A0EB"/>
<path d="M147.459 132.234L186.863 134.685L184.542 171.993L145.138 169.541L147.459 132.234Z" fill="#58A0EB"/>
<path d="M187.321 134.681L185.172 169.076L184.99 171.983L184.621 177.814C183.534 195.248 168.451 208.482 150.927 207.412L104.838 204.574C104.755 204.569 104.677 204.531 104.622 204.469C104.567 204.406 104.538 204.325 104.542 204.241L104.81 199.935L142.923 202.287C160.443 203.374 175.53 190.123 176.621 172.689L176.698 171.472L176.986 166.85L177.164 163.939L177.975 151.017L179.033 134.17L187.321 134.681Z" fill="#2D639E"/>
<path d="M175.483 129.355C177.268 128.257 177.825 125.919 176.727 124.134C175.628 122.349 173.291 121.792 171.506 122.89L161.439 129.083C159.654 130.182 159.097 132.519 160.195 134.304C161.293 136.09 163.631 136.646 165.416 135.548L175.483 129.355Z" fill="#E1617F"/>
<path d="M175.92 135.966C180.049 135.966 183.396 132.619 183.396 128.489C183.396 124.36 180.049 121.013 175.92 121.013C171.79 121.013 168.443 124.36 168.443 128.489C168.443 132.619 171.79 135.966 175.92 135.966Z" fill="#E1617F"/>
<path d="M189.082 134.68C191.572 129.447 189.349 123.186 184.116 120.696C178.883 118.206 172.622 120.429 170.132 125.662L166.187 133.951C163.697 139.183 165.92 145.444 171.153 147.935C176.386 150.425 182.647 148.202 185.137 142.969L189.082 134.68Z" fill="#EF948C"/>
<path d="M176.112 130.754C177.013 128.861 176.209 126.597 174.316 125.696C172.424 124.796 170.159 125.6 169.259 127.492L160.127 146.68C159.226 148.573 160.03 150.837 161.923 151.738C163.816 152.639 166.08 151.834 166.981 149.942L176.112 130.754Z" fill="#EF948C"/>
<path d="M175.483 129.355C177.268 128.257 177.825 125.919 176.727 124.134C175.628 122.349 173.291 121.792 171.506 122.89L161.439 129.083C159.654 130.182 159.097 132.519 160.195 134.304C161.293 136.09 163.631 136.647 165.416 135.548L175.483 129.355Z" fill="#F5A491"/>
<path d="M175.92 135.966C180.049 135.966 183.396 132.619 183.396 128.489C183.396 124.36 180.049 121.013 175.92 121.013C171.79 121.013 168.443 124.36 168.443 128.489C168.443 132.619 171.79 135.966 175.92 135.966Z" fill="#F5A491"/>
<path d="M230.798 103.651C230.928 103.882 231.054 104.121 231.172 104.369C232.316 106.723 232.603 109.403 231.982 111.947C231.942 112.133 231.893 112.312 231.836 112.49C231.78 112.668 231.743 112.786 231.695 112.932C231.447 113.644 231.132 114.331 230.754 114.984C230.677 115.109 230.604 115.235 230.527 115.357C230.509 115.388 230.489 115.418 230.466 115.446C230.377 115.588 230.284 115.722 230.182 115.851C230.081 115.981 230.004 116.103 229.906 116.224C229.906 116.253 229.866 116.277 229.846 116.305C229.748 116.427 229.651 116.541 229.55 116.658L229.525 116.691C229.412 116.812 229.298 116.942 229.181 117.064C229.063 117.185 228.937 117.311 228.812 117.429C228.812 117.429 228.812 117.449 228.791 117.453C228.666 117.57 228.54 117.684 228.41 117.793C228.281 117.903 228.139 118.029 228.005 118.138C227.871 118.248 227.721 118.353 227.575 118.458C227.062 118.824 226.519 119.147 225.953 119.423L186.218 138.634C184.883 139.284 183.432 139.663 181.949 139.75C180.467 139.837 178.981 139.629 177.579 139.139C176.177 138.649 174.886 137.886 173.78 136.895C172.674 135.904 171.775 134.703 171.135 133.363C170.49 132.027 170.115 130.576 170.031 129.095C169.946 127.613 170.155 126.13 170.645 124.729C171.134 123.328 171.895 122.038 172.884 120.931C173.872 119.825 175.069 118.924 176.406 118.28L216.141 99.0652C217.6 98.3571 219.195 97.9724 220.816 97.9374C222.438 97.9024 224.047 98.218 225.536 98.8625C227.764 99.8441 229.611 101.525 230.798 103.651Z" fill="#F5A491"/>
<path d="M189.082 134.68C191.572 129.447 189.349 123.186 184.116 120.696C178.883 118.206 172.622 120.429 170.132 125.662L166.187 133.951C163.697 139.184 165.92 145.444 171.153 147.935C176.386 150.425 182.647 148.202 185.137 142.969L189.082 134.68Z" fill="#F5A491"/>
<path d="M230.798 103.651C230.928 103.882 231.054 104.121 231.171 104.369C232.316 106.723 232.603 109.403 231.982 111.947C231.942 112.133 231.893 112.312 231.836 112.49C231.78 112.668 231.743 112.786 231.695 112.932C231.447 113.644 231.132 114.331 230.754 114.983C230.677 115.109 230.604 115.235 230.527 115.357C230.509 115.388 230.489 115.418 230.466 115.446C230.377 115.588 230.284 115.721 230.182 115.851C230.081 115.981 230.004 116.103 229.906 116.224C229.906 116.253 229.866 116.277 229.846 116.305C229.748 116.427 229.651 116.54 229.55 116.658L229.525 116.69C229.412 116.812 229.298 116.942 229.181 117.063C229.063 117.185 228.937 117.311 228.812 117.428C228.812 117.428 228.812 117.449 228.791 117.453C228.666 117.57 228.54 117.684 228.41 117.793C228.281 117.903 228.139 118.028 228.005 118.138C227.871 118.247 227.721 118.353 227.575 118.458C227.063 118.828 226.521 119.152 225.953 119.427L187.532 138.001L185.18 142.936C184.118 145.166 182.303 146.949 180.055 147.973C177.807 148.996 175.27 149.194 172.891 148.531C174.759 148.412 176.561 147.796 178.111 146.748C179.661 145.699 180.903 144.256 181.709 142.567L183.108 139.623L184.057 137.636L188.797 135.346L218.582 120.948L222.482 119.062C223.984 118.338 225.306 117.288 226.353 115.99C227.4 114.693 228.145 113.178 228.536 111.557C229.21 109.371 229.286 107.044 228.755 104.819C228.223 102.594 227.105 100.552 225.515 98.907C227.744 99.8734 229.599 101.538 230.798 103.651Z" fill="#FFC4AF"/>
<path d="M176.112 130.754C177.013 128.861 176.209 126.597 174.316 125.696C172.424 124.796 170.159 125.6 169.259 127.492L160.127 146.68C159.226 148.573 160.03 150.837 161.923 151.738C163.816 152.639 166.08 151.834 166.981 149.942L176.112 130.754Z" fill="#F5A491"/>
<path d="M181.324 129.746L181.321 129.744C179.669 128.958 177.692 129.66 176.906 131.312L174.254 136.884C173.468 138.536 174.17 140.512 175.822 141.299L175.825 141.3C177.477 142.087 179.454 141.385 180.24 139.733L182.892 134.161C183.678 132.509 182.976 130.532 181.324 129.746Z" fill="#FFC4AF"/>
<path d="M195.034 139.173C195.4 139.912 196.295 140.214 197.032 139.848C197.769 139.483 198.07 138.588 197.704 137.85L185.733 113.703C185.367 112.965 184.473 112.663 183.736 113.028C182.998 113.394 182.697 114.288 183.063 115.027L195.034 139.173Z" fill="#6F7D96"/>
<path d="M199.676 135.694C200.042 136.432 200.936 136.734 201.674 136.369C202.411 136.003 202.712 135.108 202.346 134.37L191.313 112.116C190.947 111.378 190.053 111.076 189.316 111.441C188.578 111.807 188.277 112.701 188.643 113.44L199.676 135.694Z" fill="#4E4A65"/>
<path d="M135.54 143.804H129.863V142.721C129.863 142.228 130.059 141.754 130.408 141.405C130.757 141.056 131.231 140.86 131.724 140.86H133.699C134.193 140.86 134.666 141.056 135.015 141.405C135.364 141.754 135.56 142.228 135.56 142.721V143.804H135.54Z" fill="#A7BBD8"/>
<path d="M141.204 143.804H135.528V142.721C135.528 142.477 135.576 142.235 135.669 142.009C135.763 141.783 135.9 141.578 136.073 141.405C136.246 141.232 136.451 141.095 136.676 141.002C136.902 140.908 137.144 140.86 137.389 140.86H139.351C139.845 140.86 140.318 141.056 140.667 141.405C141.016 141.754 141.212 142.228 141.212 142.721V143.804H141.204Z" fill="#A7BBD8"/>
<path d="M146.864 143.804H141.188V142.721C141.188 142.477 141.236 142.235 141.33 142.009C141.423 141.783 141.56 141.578 141.733 141.405C141.906 141.232 142.111 141.095 142.337 141.002C142.562 140.908 142.804 140.86 143.049 140.86H144.999C145.493 140.86 145.966 141.056 146.315 141.405C146.664 141.754 146.86 142.228 146.86 142.721V143.804H146.864Z" fill="#A7BBD8"/>
<path d="M90.5135 146.824H150.538C151.812 146.824 152.845 145.791 152.845 144.517C152.845 143.243 151.812 142.21 150.538 142.21H90.5135C89.2394 142.21 88.2065 143.243 88.2065 144.517C88.2065 145.791 89.2394 146.824 90.5135 146.824Z" fill="#6F7D96"/>
<path d="M130.216 146.824H76.2901C75.1912 146.823 74.1241 146.456 73.2575 145.78C72.391 145.105 71.7745 144.159 71.5056 143.094L60.9961 101.332C60.8138 100.604 60.7997 99.8443 60.9548 99.1103C61.1099 98.3764 61.4302 97.6874 61.8914 97.0957C62.3526 96.504 62.9425 96.0251 63.6164 95.6955C64.2902 95.3658 65.0304 95.194 65.7806 95.1931H113.381C114.481 95.1925 115.548 95.5593 116.415 96.2352C117.282 96.911 117.898 97.8572 118.166 98.9233L130.216 146.824Z" fill="#8797B1"/>
<path d="M60.988 101.332L71.4975 143.094C71.7664 144.159 72.3828 145.105 73.2494 145.78C74.116 146.456 75.1831 146.823 76.2819 146.824H131.051L129.888 142.21H86.4427C85.3432 142.21 84.2752 141.843 83.4078 141.168C82.5404 140.492 81.9233 139.546 81.6543 138.48L71.1488 96.7176C71.0222 96.2199 70.9743 95.7055 71.0069 95.1931H65.7765C65.026 95.1934 64.2854 95.3647 63.611 95.6941C62.9366 96.0235 62.3462 96.5023 61.8845 97.0941C61.4229 97.6859 61.1023 98.3751 60.9469 99.1094C60.7916 99.8436 60.8056 100.604 60.988 101.332Z" fill="#6F7D96"/>
<path d="M97.8159 120.336C97.8161 121.403 97.4605 122.439 96.8054 123.281C96.1503 124.123 95.2331 124.723 94.1989 124.986C93.1647 125.248 92.0725 125.158 91.0952 124.73C90.1178 124.302 89.3111 123.56 88.8026 122.622C89.7177 123.023 90.735 123.127 91.7126 122.922C92.6902 122.717 93.5794 122.212 94.2564 121.477C94.9333 120.743 95.3643 119.815 95.4892 118.824C95.6142 117.833 95.4268 116.828 94.9534 115.948C95.8051 116.323 96.5294 116.937 97.0377 117.716C97.5461 118.495 97.8165 119.405 97.8159 120.336Z" fill="#A7BBD8"/>
<path d="M143.56 191.315C142.85 191.348 142.137 191.348 141.415 191.315L119.812 190.504C119.507 190.493 119.207 190.421 118.93 190.293C118.652 190.166 118.403 189.985 118.195 189.761C117.988 189.537 117.827 189.274 117.721 188.988C117.615 188.701 117.566 188.397 117.578 188.092C117.59 187.787 117.661 187.487 117.789 187.21C117.917 186.932 118.097 186.683 118.321 186.475C118.546 186.268 118.808 186.106 119.095 186.001C119.381 185.895 119.685 185.846 119.99 185.858L141.589 186.669C146.467 186.84 151.254 185.323 155.143 182.375C159.032 179.426 161.785 175.226 162.937 170.483L165.892 158.149C166.047 157.56 166.427 157.056 166.949 156.744C167.471 156.431 168.095 156.336 168.687 156.478C169.278 156.62 169.791 156.989 170.114 157.504C170.438 158.019 170.547 158.641 170.417 159.235L167.458 171.569C166.141 177 163.101 181.858 158.793 185.418C154.486 188.977 149.141 191.046 143.56 191.315Z" fill="#6AB0EF"/>
<path d="M158.846 50.7627C158.829 51.2359 158.906 51.7077 159.072 52.151C159.238 52.5942 159.491 53.0002 159.815 53.3455C159.896 53.4307 159.977 53.5118 160.062 53.5888C160.689 54.1445 161.491 54.463 162.329 54.4889H162.474C163.238 54.5184 163.99 54.3008 164.619 53.8686C165.047 53.578 165.408 53.1988 165.677 52.7567C165.945 52.3146 166.116 51.8198 166.176 51.3061C166.176 51.2047 166.176 51.1074 166.176 51.006C166.18 50.9143 166.166 50.8227 166.134 50.7366C166.102 50.6505 166.053 50.5716 165.991 50.5045C165.928 50.4373 165.853 50.3833 165.769 50.3455C165.685 50.3077 165.595 50.2869 165.503 50.2843L159.547 50.0856C159.365 50.0834 159.189 50.1533 159.057 50.2801C158.926 50.4068 158.85 50.5803 158.846 50.7627Z" fill="#962F4A"/>
<path d="M162.418 53.9375C162.413 54.1234 162.426 54.3093 162.454 54.493H162.475C163.379 54.5235 164.262 54.2126 164.948 53.6222C165.633 53.0318 166.072 52.205 166.176 51.3061C165.753 51.1691 165.304 51.1321 164.864 51.198C164.425 51.2639 164.006 51.431 163.642 51.686C163.278 51.9411 162.977 52.2771 162.765 52.6678C162.553 53.0585 162.434 53.4931 162.418 53.9375Z" fill="#E1617F"/>
<path d="M159.693 50.0939C159.693 50.7994 160.768 51.4035 162.126 51.4481C163.484 51.4927 164.559 50.9656 164.627 50.2561L159.693 50.0939Z" fill="white"/>
</svg>
