<svg width="397" height="251" viewBox="0 0 397 251" fill="none" xmlns="http://www.w3.org/2000/svg">
<path d="M392.496 219.369H363.602C361.114 219.369 359.098 221.385 359.098 223.872V223.878C359.098 226.365 361.114 228.381 363.602 228.381H392.496C394.984 228.381 397 226.365 397 223.878V223.872C397 221.385 394.984 219.369 392.496 219.369Z" fill="#D2D6FA"/>
<path d="M351.621 219.341H11.2616C9.17385 219.341 7.48142 221.371 7.48142 223.876V223.881C7.48142 226.386 9.17385 228.417 11.2616 228.417H351.621C353.709 228.417 355.401 226.386 355.401 223.881V223.876C355.401 221.371 353.709 219.341 351.621 219.341Z" fill="#D2D6FA"/>
<path d="M62.2993 109.97L11.1466 164.806C4.99049 171.405 5.34979 181.745 11.9491 187.901L12.0276 187.975C18.6269 194.131 28.9672 193.771 35.1233 187.172L86.276 132.337C92.4321 125.737 92.0728 115.397 85.4735 109.241L85.3949 109.168C78.7957 103.012 68.4554 103.371 62.2993 109.97Z" fill="#FFA84D"/>
<path d="M62.2993 109.97L11.1466 164.806C4.99049 171.405 5.34979 181.745 11.9491 187.901L12.0276 187.975C18.6269 194.131 28.9672 193.771 35.1233 187.172L86.276 132.337C92.4321 125.737 92.0728 115.397 85.4735 109.241L85.3949 109.168C78.7957 103.012 68.4554 103.371 62.2993 109.97Z" fill="#FFA84D"/>
<path d="M90.6832 121.456C89.7973 119.471 88.5196 117.685 86.9267 116.206L86.8449 116.129C85.276 114.665 83.4342 113.525 81.4247 112.773C79.4151 112.021 77.2771 111.673 75.1328 111.747C72.9885 111.822 70.8799 112.318 68.9275 113.208C66.975 114.098 65.2169 115.363 63.7536 116.932L12.5763 171.769C9.8081 174.725 8.24393 178.609 8.19039 182.659C6.86907 179.724 6.44444 176.464 6.9698 173.288C7.49517 170.112 8.94711 167.162 11.1433 164.809L62.3207 109.972C63.7847 108.403 65.5435 107.138 67.4966 106.249C69.4497 105.359 71.5588 104.864 73.7035 104.789C75.8482 104.715 77.9865 105.064 79.9963 105.817C82.0061 106.569 83.8481 107.71 85.417 109.174L85.4938 109.245C87.1686 110.802 88.4965 112.693 89.3907 114.798C90.2849 116.902 90.7253 119.171 90.6832 121.456Z" fill="#FFBE83"/>
<path d="M187.408 218.008C185.373 218.711 183.218 219.006 181.069 218.876C178.919 218.746 176.816 218.193 174.88 217.248C172.945 216.304 171.214 214.988 169.788 213.374C168.362 211.76 167.268 209.881 166.569 207.844L160.213 189.323L156.794 179.338L139.675 130.111C138.977 128.074 138.687 125.92 138.821 123.771C138.955 121.622 139.511 119.52 140.458 117.586C141.404 115.652 142.722 113.924 144.337 112.499C145.951 111.075 147.83 109.982 149.867 109.284C153.981 107.874 158.486 108.155 162.391 110.067C164.325 111.013 166.054 112.331 167.478 113.945C168.903 115.56 169.996 117.439 170.694 119.476L185.08 160.74L197.582 197.214C198.988 201.321 198.707 205.818 196.799 209.717C194.891 213.616 191.514 216.598 187.408 218.008Z" fill="#FFA84D"/>
<path d="M188.611 217.532C188.217 217.711 187.807 217.864 187.393 218.008C185.358 218.71 183.205 219.003 181.056 218.872C178.908 218.741 176.806 218.188 174.871 217.244C172.937 216.3 171.207 214.984 169.782 213.371C168.356 211.758 167.263 209.88 166.564 207.844L148.227 154.333C147.345 151.776 147.11 149.041 147.543 146.371C147.976 143.701 149.063 141.18 150.708 139.033C152.353 136.886 154.504 135.18 156.968 134.067C159.433 132.953 162.136 132.468 164.834 132.654C161.052 134.294 158.028 137.3 156.365 141.072C154.702 144.844 154.523 149.104 155.863 153.002L174.199 206.493C175.245 209.549 177.171 212.228 179.736 214.192C182.3 216.156 185.388 217.318 188.611 217.532Z" fill="#FFBE83"/>
<path d="M74.8899 134.568H154.041V219.369H74.8899V134.568Z" fill="#FFDAB2"/>
<path d="M83.7845 100.535H145.146C151.983 100.535 158.54 103.251 163.374 108.085C168.208 112.92 170.924 119.476 170.924 126.313C170.924 135.836 167.141 144.969 160.408 151.703C153.674 158.436 144.541 162.219 135.018 162.219H93.9125C84.3896 162.219 75.2568 158.436 68.5231 151.703C61.7894 144.969 58.0064 135.836 58.0064 126.313C58.0064 119.476 60.7223 112.92 65.5567 108.085C70.391 103.251 76.9477 100.535 83.7845 100.535Z" fill="#FFDAB2"/>
<path d="M74.8899 134.568H154.041V219.369H74.8899V134.568Z" fill="#FFDAB2"/>
<path d="M83.7845 100.535H145.146C151.983 100.535 158.54 103.251 163.374 108.085C168.208 112.92 170.924 119.476 170.924 126.313C170.924 135.836 167.141 144.969 160.408 151.703C153.674 158.436 144.541 162.219 135.018 162.219H93.9125C84.3896 162.219 75.2568 158.436 68.5231 151.703C61.7894 144.969 58.0064 135.836 58.0064 126.313C58.0064 119.476 60.7223 112.92 65.5567 108.085C70.391 103.251 76.9477 100.535 83.7845 100.535Z" fill="#FFDAB2"/>
<path d="M243.1 186.185H182.106C173.053 186.185 165.714 193.524 165.714 202.578V202.583C165.714 211.636 173.053 218.975 182.106 218.975H243.1C252.153 218.975 259.492 211.636 259.492 202.583V202.578C259.492 193.524 252.153 186.185 243.1 186.185Z" fill="#FF9F8C"/>
<path d="M260.08 216.777C271.603 211.543 277.616 199.971 273.509 190.93C269.403 181.89 256.732 178.805 245.208 184.04C233.685 189.274 227.672 200.846 231.779 209.887C235.885 218.927 248.556 222.012 260.08 216.777Z" fill="#FF9F8C"/>
<path d="M273.499 190.955C273.205 190.301 272.863 189.67 272.475 189.067C274.625 197.654 268.693 207.695 258.187 212.47C257.209 212.917 256.206 213.307 255.183 213.637C250.997 215.063 246.516 215.389 242.168 214.584C241.856 214.609 241.544 214.614 241.232 214.614H235.182L180.244 214.655C177.451 214.658 174.704 213.947 172.264 212.589C169.825 211.231 167.772 209.271 166.303 206.897C167.245 210.373 169.306 213.441 172.167 215.627C175.029 217.813 178.531 218.995 182.132 218.99L243.125 218.954C243.437 218.954 243.749 218.954 244.057 218.924C248.975 219.906 254.655 219.282 260.08 216.82C271.59 211.585 277.603 200.014 273.499 190.955Z" fill="#F78F7A"/>
<path d="M144.931 100.535H132.265C135.65 100.534 139.002 101.201 142.13 102.495C145.258 103.79 148.1 105.689 150.494 108.082C152.888 110.475 154.788 113.316 156.084 116.444C157.38 119.571 158.047 122.923 158.048 126.308C158.051 131.647 156.862 136.919 154.568 141.74C152.274 146.561 148.933 150.809 144.788 154.174C143.664 155.079 142.756 156.223 142.13 157.522C141.503 158.822 141.173 160.244 141.165 161.687V219.369H154.041V156.764C159.169 153.559 163.406 149.111 166.358 143.833C169.311 138.555 170.883 132.617 170.929 126.569C171.032 112.26 159.261 100.535 144.931 100.535Z" fill="#FFECD9"/>
<path d="M255.907 183.644C257.526 181.509 257.108 178.466 254.973 176.846C252.838 175.227 249.795 175.645 248.176 177.78L240.497 187.905C238.877 190.039 239.295 193.083 241.43 194.702C243.565 196.321 246.608 195.903 248.227 193.768L255.907 183.644Z" fill="#FF9F8C"/>
<path d="M90.1714 199.579C90.5967 203.344 89.7029 207.141 87.6423 210.321C85.5818 213.502 82.482 215.869 78.8714 217.02L78.4825 217.143C78.0986 217.26 77.7046 217.358 77.3054 217.44C77.1774 217.47 77.0444 217.491 76.9062 217.516L76.5377 217.583H76.4661L76.1437 217.629H76.113C75.4177 217.726 74.7167 217.777 74.0147 217.782C73.7793 217.782 73.5336 217.782 73.2931 217.782C72.9297 217.782 72.5613 217.747 72.203 217.711C71.8448 217.675 71.42 217.614 71.0259 217.547C70.435 217.443 69.8506 217.304 69.2757 217.132C68.2952 216.846 67.3441 216.468 66.4353 216.001L65.4834 215.52L16.0666 190.31C13.6485 189.077 11.5748 187.262 10.032 185.029C8.48923 182.796 7.52576 180.214 7.22825 177.516C7.13947 176.743 7.10698 175.965 7.13102 175.188C7.13102 174.793 7.16684 174.399 7.2129 174.01C7.25896 173.621 7.30503 173.227 7.37156 172.833C7.47882 172.245 7.61546 171.663 7.78097 171.088C7.84238 170.894 7.89868 170.699 7.96521 170.505C8.09315 170.126 8.23646 169.742 8.3951 169.364C8.55375 168.985 8.72776 168.611 8.90688 168.243C8.999 168.069 9.086 167.895 9.18323 167.731C9.43875 167.268 9.72069 166.82 10.0277 166.39C10.0481 166.357 10.0703 166.324 10.0942 166.293C10.171 166.175 10.2528 166.063 10.3347 165.95C11.6376 164.193 13.2785 162.714 15.161 161.599C17.0435 160.485 19.1296 159.758 21.2969 159.461C21.5784 159.425 21.8599 159.389 22.1413 159.369C25.19 159.099 28.2527 159.699 30.9745 161.098L81.3382 186.8C83.7533 188.032 85.8247 189.845 87.3664 192.075C88.9081 194.306 89.872 196.884 90.1714 199.579Z" fill="#FF9F8C"/>
<path d="M101.547 203.927C102.635 194.057 93.3182 184.932 80.7376 183.545C68.157 182.159 57.0765 189.035 55.9886 198.905C54.9007 208.775 64.2175 217.9 76.7981 219.286C89.3787 220.673 100.459 213.796 101.547 203.927Z" fill="#FF9F8C"/>
<path d="M82.8479 219.318C80.8344 219.522 78.8049 219.512 76.7936 219.287C72.7975 218.862 68.9408 217.577 65.4885 215.52L16.0666 190.31C13.6485 189.077 11.5748 187.263 10.032 185.029C8.48923 182.796 7.52576 180.214 7.22825 177.516C7.13947 176.743 7.10698 175.965 7.13102 175.188C7.13102 174.793 7.16684 174.399 7.2129 174.01C7.25896 173.622 7.30503 173.227 7.37156 172.833C7.47882 172.245 7.61546 171.663 7.78097 171.088C7.84238 170.894 7.89868 170.699 7.96521 170.505C8.09315 170.126 8.23646 169.742 8.3951 169.364C8.55375 168.985 8.72776 168.611 8.90688 168.243C8.999 168.069 9.086 167.895 9.18323 167.731C9.43875 167.268 9.72069 166.821 10.0277 166.39C10.0481 166.357 10.0703 166.324 10.0942 166.293C10.171 166.175 10.2528 166.063 10.3347 165.95C11.6376 164.193 13.2785 162.714 15.161 161.599C17.0435 160.485 19.1296 159.758 21.2969 159.461C21.5784 159.425 21.8599 159.389 22.1413 159.369L17.3614 165.367C17.1822 165.587 17.0134 165.817 16.8496 166.042C16.7677 166.15 16.6909 166.267 16.6091 166.385L16.5425 166.477C15.0529 168.699 14.1301 171.251 13.8548 173.912C13.5796 176.573 13.9602 179.26 14.9634 181.74C15.9667 184.219 17.562 186.416 19.6099 188.136C21.6579 189.857 24.0961 191.05 26.7115 191.61C26.3174 191.682 25.9182 191.743 25.5242 191.789H25.3553L58.3493 208.627L72.0137 215.602L72.9656 216.088C73.8783 216.551 74.8306 216.931 75.811 217.225C76.1846 217.332 76.5531 217.424 76.9267 217.506L76.5582 217.573H76.4866L76.1641 217.619C78.3145 218.455 80.5591 219.026 82.8479 219.318Z" fill="#FFC3B5"/>
<path d="M81.3638 183.586H81.2L81.4661 183.627L81.3638 183.586Z" fill="#FCB798"/>
<path d="M87.5665 188.913C90.1166 188.09 91.5169 185.356 90.6943 182.806C89.8716 180.256 87.1375 178.855 84.5874 179.678L72.4938 183.579C69.9438 184.402 68.5434 187.136 69.3661 189.686C70.1888 192.236 72.9229 193.637 75.4729 192.814L87.5665 188.913Z" fill="#FF9F8C"/>
<path d="M105.143 209.386C107.457 210.736 110.428 209.954 111.778 207.64C113.128 205.326 112.347 202.355 110.032 201.005L92.7264 190.908C90.412 189.558 87.4413 190.339 86.091 192.654C84.7407 194.968 85.5223 197.939 87.8367 199.289L105.143 209.386Z" fill="#FF9F8C"/>
<path d="M101.769 218.316C104.083 219.666 107.054 218.885 108.404 216.57C109.754 214.256 108.973 211.285 106.658 209.935L89.3523 199.838C87.0379 198.488 84.0672 199.27 82.7169 201.584C81.3667 203.898 82.1482 206.869 84.4626 208.219L101.769 218.316Z" fill="#FF9F8C"/>
<path d="M89.1267 221.077C91.4411 222.427 94.4118 221.646 95.7621 219.331C97.1123 217.017 96.3308 214.046 94.0164 212.696L76.7104 202.599C74.396 201.249 71.4252 202.031 70.075 204.345C68.7247 206.66 69.5063 209.63 71.8207 210.981L89.1267 221.077Z" fill="#FF9F8C"/>
<path d="M88.339 200.579C88.8831 195.643 84.2249 191.079 77.9345 190.386C71.6442 189.692 66.1038 193.132 65.5598 198.068C65.0157 203.004 69.6739 207.568 75.9642 208.261C82.2546 208.955 87.7949 205.515 88.339 200.579Z" fill="#FFC3B5"/>
<path d="M119.271 65.192L107.771 25.9441C107.532 25.1611 107.474 24.3337 107.603 23.5252C107.732 22.7166 108.044 21.9481 108.515 21.2783C108.986 20.6085 109.603 20.055 110.321 19.66C111.038 19.2651 111.836 19.0391 112.654 18.9993C118.519 18.8074 124.284 20.563 129.047 23.992C133.81 27.421 137.304 32.3305 138.983 37.9542C140.662 43.5779 140.432 49.5993 138.329 55.0785C136.226 60.5578 132.368 65.1865 127.357 68.2422C126.647 68.6841 125.846 68.9567 125.014 69.0386C124.182 69.1206 123.342 69.0098 122.56 68.7148C121.778 68.4198 121.075 67.9485 120.504 67.3376C119.934 66.7266 119.512 65.9924 119.271 65.192Z" fill="#082A3C"/>
<path d="M127.71 72.0907L127.643 85.6732L127.551 101.907L92.2082 102.157L92.3311 78.2729L92.3669 72.3415L127.71 72.0907Z" fill="#FF9F8C"/>
<path d="M131.205 92.5924C131.564 92.5847 131.921 92.6525 132.251 92.7914C132.582 92.9304 132.88 93.1374 133.126 93.399C133.372 93.6605 133.559 93.9709 133.677 94.3098C133.795 94.6487 133.841 95.0086 133.81 95.3662L133.606 97.746L133.258 101.702C133.201 102.329 132.916 102.913 132.456 103.342C131.996 103.772 131.394 104.017 130.765 104.031L89.3731 104.977C89.0147 104.984 88.6589 104.916 88.3287 104.777C87.9984 104.637 87.7011 104.43 87.456 104.169C87.2109 103.907 87.0235 103.597 86.9059 103.259C86.7883 102.92 86.7431 102.561 86.7732 102.203L87.3208 95.8678C87.3773 95.2411 87.6627 94.6572 88.1225 94.2277C88.5822 93.7981 89.1841 93.553 89.8132 93.5392L131.205 92.5924Z" fill="#FFDAB2"/>
<path d="M127.715 72.2853L127.746 89.3683C125.501 90.5716 122.995 91.2044 120.448 91.2107H113.969C109.709 91.227 105.511 90.1939 101.745 88.2025C97.9791 86.2112 94.7618 83.3229 92.3772 79.793V72.3313L127.715 72.2853Z" fill="#FE8F77"/>
<path d="M121.275 87.0231L114.806 87.0412C107.917 87.0604 101.301 84.342 96.4161 79.4838C91.5307 74.6257 88.7754 68.0259 88.7561 61.1362L88.7021 41.7708C88.6962 39.9134 89.0563 38.0731 89.7618 36.355C90.4674 34.6368 91.5045 33.0745 92.8139 31.7572C94.1233 30.44 95.6795 29.3936 97.3934 28.6779C99.1073 27.9622 100.945 27.5911 102.803 27.5859L123.719 27.5275C127.171 27.5179 130.485 28.8798 132.932 31.3136C135.38 33.7475 136.76 37.0539 136.77 40.5055L136.856 71.3551C136.867 75.499 135.232 79.4777 132.31 82.416C129.388 85.3543 125.419 87.0116 121.275 87.0231Z" fill="#FF9F8C"/>
<path d="M136.743 40.5246L136.83 71.3641C136.836 73.4163 136.438 75.4497 135.658 77.348C134.878 79.2463 133.731 80.9723 132.284 82.4275C130.837 83.8827 129.117 85.0386 127.224 85.8291C125.33 86.6196 123.299 87.0292 121.246 87.0346H114.783C111.503 87.0449 108.251 86.4355 105.197 85.2382C107.281 85.7707 109.423 86.0406 111.574 86.0417H118.037C120.09 86.0364 122.121 85.6267 124.015 84.8362C125.909 84.0458 127.628 82.8899 129.075 81.4347C130.523 79.9795 131.669 78.2534 132.449 76.3551C133.229 74.4568 133.627 72.4235 133.621 70.3712L133.534 39.4703C133.527 37.0121 132.824 34.6061 131.506 32.5311C130.189 30.456 128.31 28.7968 126.088 27.7456C129.077 28.2956 131.779 29.8747 133.725 32.209C135.672 34.5433 136.739 37.4853 136.743 40.5246Z" fill="#FFC3B5"/>
<path d="M126.748 66.3538C126.776 67.4925 126.353 68.5961 125.571 69.4244C125.474 69.5268 125.371 69.624 125.269 69.7161C124.516 70.3744 123.556 70.7491 122.556 70.7755H122.382C121.301 70.8054 120.247 70.4281 119.43 69.7182C118.613 69.0084 118.092 68.0177 117.971 66.9423C117.971 66.8246 117.971 66.7018 117.945 66.5841C117.94 66.3619 118.023 66.1468 118.176 65.9853C118.25 65.9049 118.341 65.8403 118.441 65.7955C118.541 65.7507 118.649 65.7264 118.759 65.7243L125.888 65.5247C125.999 65.5213 126.11 65.5402 126.214 65.5802C126.318 65.6203 126.413 65.6807 126.493 65.758C126.573 65.8352 126.637 65.9278 126.68 66.0301C126.724 66.1324 126.747 66.2425 126.748 66.3538Z" fill="#962F4A"/>
<path d="M122.449 70.1307C122.454 70.3534 122.439 70.5762 122.403 70.796H122.377C121.296 70.8258 120.243 70.4484 119.427 69.7384C118.611 69.0285 118.091 68.0378 117.971 66.9629C118.478 66.7998 119.015 66.7569 119.541 66.8376C120.067 66.9183 120.567 67.1203 121.002 67.4276C121.436 67.735 121.793 68.1392 122.044 68.6084C122.296 69.0776 122.434 69.5988 122.449 70.1307Z" fill="#E1617F"/>
<path d="M125.724 65.5707C125.724 66.4202 124.435 67.1367 122.828 67.1828C121.221 67.2288 119.9 66.584 119.844 65.7396L125.724 65.5707Z" fill="white"/>
<path d="M114.721 57.3413C115.747 57.3413 116.579 56.5096 116.579 55.4836C116.579 54.4576 115.747 53.6259 114.721 53.6259C113.695 53.6259 112.863 54.4576 112.863 55.4836C112.863 56.5096 113.695 57.3413 114.721 57.3413Z" fill="#541000"/>
<path d="M131.333 57.1827C132.359 57.1827 133.191 56.351 133.191 55.325C133.191 54.299 132.359 53.4673 131.333 53.4673C130.307 53.4673 129.476 54.299 129.476 55.325C129.476 56.351 130.307 57.1827 131.333 57.1827Z" fill="#541000"/>
<path d="M94.0558 41.7221C100.217 41.7221 105.212 36.7271 105.212 30.5655C105.212 24.4038 100.217 19.4088 94.0558 19.4088C87.8941 19.4088 82.8991 24.4038 82.8991 30.5655C82.8991 36.7271 87.8941 41.7221 94.0558 41.7221Z" fill="#082A3C"/>
<path d="M109.957 40.8726C119.233 40.8726 126.753 33.3526 126.753 24.0762C126.753 14.7998 119.233 7.27979 109.957 7.27979C100.68 7.27979 93.1602 14.7998 93.1602 24.0762C93.1602 33.3526 100.68 40.8726 109.957 40.8726Z" fill="#082A3C"/>
<path d="M94.0558 41.7221C100.217 41.7221 105.212 36.7271 105.212 30.5655C105.212 24.4038 100.217 19.4088 94.0558 19.4088C87.8941 19.4088 82.8991 24.4038 82.8991 30.5655C82.8991 36.7271 87.8941 41.7221 94.0558 41.7221Z" fill="#082A3C"/>
<path d="M109.957 40.8726C119.233 40.8726 126.753 33.3526 126.753 24.0762C126.753 14.7998 119.233 7.27979 109.957 7.27979C100.68 7.27979 93.1602 14.7998 93.1602 24.0762C93.1602 33.3526 100.68 40.8726 109.957 40.8726Z" fill="#082A3C"/>
<path d="M123.882 14.68C121.927 13.1198 119.648 12.0159 117.211 11.4489C114.775 10.8819 112.243 10.8661 109.799 11.4026C107.356 11.9391 105.063 13.0144 103.089 14.5501C101.114 16.0857 99.5071 18.0429 98.3854 20.2788C97.925 21.2002 97.5482 22.1611 97.2595 23.1498C95.3294 23.1906 93.443 23.7318 91.7848 24.7204C90.1266 25.709 88.7535 27.1111 87.7997 28.7896C86.846 30.468 86.3443 32.3653 86.3438 34.2959C86.3433 36.2264 86.8439 38.1239 87.7968 39.8029C85.8375 38.4748 84.3515 36.5581 83.5534 34.3297C82.7554 32.1014 82.6867 29.677 83.3573 27.407C84.0279 25.1371 85.4031 23.1393 87.2839 21.7024C89.1648 20.2655 91.4539 19.464 93.8203 19.4139C94.7065 16.3446 96.4496 13.5918 98.8451 11.4782C101.241 9.36471 104.189 7.97814 107.345 7.48121C110.5 6.98427 113.732 7.39757 116.662 8.67263C119.591 9.94769 122.095 12.0316 123.882 14.68Z" fill="#011923"/>
<path d="M130.289 44.0352C142.449 44.0352 152.306 34.1781 152.306 22.0187C152.306 9.85931 142.449 0.00219727 130.289 0.00219727C118.13 0.00219727 108.273 9.85931 108.273 22.0187C108.273 34.1781 118.13 44.0352 130.289 44.0352Z" fill="#082A3C"/>
<path d="M130.289 44.0352C142.449 44.0352 152.306 34.1781 152.306 22.0187C152.306 9.85931 142.449 0.00219727 130.289 0.00219727C118.13 0.00219727 108.273 9.85931 108.273 22.0187C108.273 34.1781 118.13 44.0352 130.289 44.0352Z" fill="#082A3C"/>
<path d="M152.306 22.0187C152.308 25.1191 151.654 28.1849 150.388 31.0152C149.123 33.8455 147.273 36.3763 144.961 38.442C142.649 40.5076 139.927 42.0614 136.972 43.0015C134.018 43.9416 130.898 44.2468 127.817 43.8971C133.212 43.3128 138.201 40.7561 141.825 36.7179C145.449 32.6798 147.454 27.4449 147.454 22.0187C147.454 16.5926 145.449 11.3578 141.825 7.31959C138.201 3.28144 133.212 0.724694 127.817 0.140428C130.898 -0.209268 134.018 0.0959367 136.972 1.03603C139.927 1.97613 142.649 3.52989 144.961 5.59553C147.273 7.66116 149.123 10.192 150.388 13.0223C151.654 15.8526 152.308 18.9183 152.306 22.0187Z" fill="#0F4D68"/>
<path d="M84.9667 57.9965L84.2144 33.1346C84.1956 32.6381 84.29 32.1439 84.4904 31.6893C84.6908 31.2347 84.9919 30.8317 85.3711 30.5107C85.7503 30.1897 86.1975 29.9592 86.6789 29.8366C87.1604 29.714 87.6634 29.7024 88.1499 29.8029C91.6236 30.5956 94.738 32.514 97.0087 35.2596C99.2794 38.0053 100.579 41.4244 100.706 44.9851C100.833 48.5458 99.779 52.0486 97.7091 54.9487C95.6393 57.8488 92.6691 59.9836 89.2605 61.0211C88.7758 61.1722 88.2629 61.2098 87.7614 61.1311C87.2599 61.0523 86.7832 60.8593 86.3682 60.567C85.9532 60.2746 85.611 59.8908 85.3679 59.4451C85.1249 58.9994 84.9876 58.5038 84.9667 57.9965Z" fill="#082A3C"/>
<path d="M84.1529 58.3342L86.0874 40.371C86.1234 40.0119 86.2405 39.6658 86.4299 39.3587C86.6193 39.0516 86.876 38.7916 87.1807 38.5983C87.4854 38.405 87.83 38.2836 88.1885 38.2432C88.5471 38.2027 88.9101 38.2443 89.2502 38.3648C91.6831 39.2736 93.746 40.9634 95.1159 43.1698C96.4859 45.3762 97.0856 47.9745 96.8211 50.5581C96.5567 53.1417 95.443 55.5646 93.6545 57.4477C91.866 59.3308 89.5035 60.5677 86.937 60.9647C86.5711 61.0252 86.1962 61.0003 85.8415 60.892C85.4869 60.7836 85.1621 60.5947 84.8925 60.34C84.623 60.0853 84.416 59.7717 84.2877 59.4238C84.1594 59.0758 84.1133 58.7029 84.1529 58.3342Z" fill="#0F4D68"/>
<path d="M90.371 66.6659C94.8481 66.6659 98.4775 63.0365 98.4775 58.5594C98.4775 54.0823 94.8481 50.4529 90.371 50.4529C85.8939 50.4529 82.2645 54.0823 82.2645 58.5594C82.2645 63.0365 85.8939 66.6659 90.371 66.6659Z" fill="#FF9F8C"/>
<path d="M87.6484 58.7437C87.6672 59.4557 87.8958 60.1463 88.3055 60.729C88.7152 61.3116 89.2877 61.7604 89.9513 62.019C90.1109 62.0771 90.2823 62.0945 90.4502 62.0698C90.6182 62.0451 90.7773 61.979 90.9134 61.8775C91.0494 61.7759 91.1581 61.6422 91.2296 61.4882C91.301 61.3343 91.3331 61.1649 91.3229 60.9955L91.1949 56.2923C91.1975 56.1114 91.152 55.9331 91.0632 55.7755C90.9744 55.6179 90.8455 55.4866 90.6894 55.3951C90.5334 55.3036 90.3559 55.255 90.175 55.2544C89.9941 55.2538 89.8163 55.3011 89.6596 55.3916C89.0386 55.699 88.5189 56.1784 88.1623 56.7726C87.8058 57.3669 87.6274 58.051 87.6484 58.7437Z" fill="#FB8265"/>
<path d="M274.492 51.5687H305.817C311.526 51.5687 317.001 53.8365 321.038 57.8733C325.075 61.91 327.343 67.3851 327.343 73.0939V162.383H274.492V51.5687Z" fill="#011923"/>
<path d="M274.492 51.5687H305.817C311.526 51.5687 317.001 53.8365 321.038 57.8733C325.075 61.91 327.343 67.3851 327.343 73.0939V162.383H274.492V51.5687Z" fill="#011923"/>
<path d="M327.337 73.0939V162.383H305.628V73.0939C305.628 67.3904 303.364 61.92 299.334 57.8841C295.304 53.8483 289.837 51.5769 284.134 51.5687H305.838C311.542 51.5755 317.011 53.8463 321.042 57.8823C325.073 61.9184 327.337 67.3895 327.337 73.0939Z" fill="#082A3C"/>
<path d="M276.088 154.307C276.165 154.43 276.247 154.548 276.329 154.665C275.085 154.665 273.862 154.665 272.649 154.599C273.785 154.543 274.922 154.44 276.088 154.307Z" fill="#0F4D68"/>
<path d="M284.415 135.725C284.419 137.787 283.972 139.826 283.104 141.698C282.237 143.569 280.971 145.228 279.395 146.559L263.53 159.988L251.892 169.829L234.348 184.671C231.471 187.052 227.77 188.202 224.05 187.872C220.33 187.542 216.89 185.758 214.476 182.908C212.063 180.057 210.871 176.37 211.16 172.646C211.448 168.922 213.193 165.463 216.017 163.018L261.053 124.896C263.117 123.147 265.637 122.026 268.318 121.663C270.998 121.301 273.727 121.712 276.181 122.85C278.635 123.987 280.713 125.802 282.169 128.082C283.625 130.361 284.399 133.01 284.4 135.714L284.415 135.725Z" fill="#FFB2BF"/>
<path d="M263.529 159.988L251.892 169.829C249.273 166.884 247.83 163.079 247.839 159.138V157.93C247.835 153.535 248.699 149.182 250.38 145.122C252.062 141.061 254.529 137.372 257.639 134.266C258.263 133.642 258.903 133.048 259.573 132.48C257.796 140.521 258.581 148.916 261.82 156.487C262.342 157.69 262.915 158.862 263.529 159.988Z" fill="#FF6D8D"/>
<path d="M284.42 135.73C284.422 136.286 284.387 136.841 284.318 137.393C284.007 134.854 283.015 132.445 281.447 130.423C279.879 128.401 277.794 126.841 275.412 125.907C273.03 124.973 270.44 124.7 267.916 125.118C265.392 125.535 263.027 126.627 261.073 128.278L216.037 166.4C213.285 168.717 211.523 171.998 211.114 175.571C210.83 173.236 211.131 170.867 211.991 168.678C212.85 166.488 214.241 164.547 216.037 163.028L261.073 124.906C263.138 123.159 265.659 122.04 268.339 121.679C271.019 121.317 273.747 121.73 276.201 122.867C278.654 124.005 280.731 125.82 282.188 128.099C283.644 130.378 284.419 133.025 284.42 135.73Z" fill="#F9E0E5"/>
<path d="M260.74 160.09H304.999V219.369H260.74V160.09Z" fill="#0D9A73"/>
<path d="M305.004 160.09V172.055C291.642 180.201 276.383 184.71 260.74 185.136V160.09H305.004Z" fill="#0B8962"/>
<path d="M281.063 126.569C280.499 125.903 279.873 125.291 279.195 124.742C281.549 127.62 282.679 131.308 282.34 135.011C282.001 138.713 280.221 142.135 277.383 144.537L232.347 182.665C229.821 184.802 226.627 185.988 223.318 186.018C220.01 186.048 216.795 184.92 214.23 182.828C214.282 182.89 214.322 182.956 214.379 183.023C216.81 185.893 220.282 187.68 224.03 187.991C227.779 188.302 231.498 187.111 234.369 184.681L279.405 146.559C280.826 145.355 281.997 143.884 282.85 142.228C283.703 140.572 284.221 138.764 284.375 136.908C284.529 135.051 284.315 133.183 283.747 131.409C283.179 129.635 282.267 127.99 281.063 126.569Z" fill="#FF6D8D"/>
<path d="M210.922 175.18C211.546 182.99 218.382 188.815 226.191 188.191C234 187.567 239.824 180.729 239.199 172.919L234.983 120.175C234.359 112.365 227.523 106.54 219.714 107.164C211.906 107.788 206.082 114.626 206.706 122.436L210.922 175.18Z" fill="#FFB2BF"/>
<path opacity="0.38" d="M218.784 160.016L218.789 160.016C221.108 159.83 222.837 157.8 222.652 155.482L221.431 140.203C221.245 137.884 219.215 136.155 216.896 136.34L216.891 136.34C214.573 136.526 212.843 138.556 213.028 140.874L214.25 156.153C214.435 158.472 216.465 160.202 218.784 160.016Z" fill="#F9E0E5"/>
<path d="M313.769 183.026C318.463 189.299 327.353 190.579 333.625 185.885C339.897 181.192 341.175 172.302 336.481 166.029L308.154 128.177C303.459 121.905 294.57 120.624 288.298 125.318C282.026 130.011 280.748 138.901 285.442 145.174L313.769 183.026Z" fill="#FFB2BF"/>
<path d="M297.838 215.391C295.57 222.891 299.809 230.809 307.307 233.077C314.805 235.345 322.722 231.104 324.991 223.605L338.679 178.352C340.948 170.853 336.709 162.935 329.211 160.667C321.713 158.399 313.795 162.639 311.527 170.139L297.838 215.391Z" fill="#FFB2BF"/>
<path d="M323.361 241.804C330.297 237.269 331.256 226.46 325.504 217.662C319.751 208.865 309.465 205.409 302.529 209.945C295.593 214.48 294.634 225.289 300.386 234.086C306.139 242.884 316.425 246.339 323.361 241.804Z" fill="#FFB2BF"/>
<path d="M305.802 234.128C305.337 233.418 304.91 232.683 304.523 231.928C301.851 226.728 301.37 221.099 302.931 216.575C303.013 216.181 303.115 215.786 303.233 215.398L305.28 208.642L313.253 182.281L314.789 177.117L310.95 171.968L290.868 145.131C288.842 142.419 287.851 139.071 288.076 135.692C288.302 132.313 289.728 129.127 292.097 126.707C293.174 125.639 293.929 124.289 294.277 122.813L294.308 122.674C291.926 123.101 289.692 124.129 287.82 125.662C285.947 127.195 284.498 129.181 283.609 131.432C282.72 133.683 282.422 136.123 282.742 138.522C283.062 140.92 283.99 143.197 285.439 145.136L309.384 177.137L297.803 215.413C297.685 215.812 297.583 216.206 297.506 216.605C295.725 221.759 296.616 228.376 300.372 234.128C305.039 241.263 312.655 244.876 319.098 243.586C314.164 242.644 309.21 239.323 305.802 234.128Z" fill="#FF6D8D"/>
<path d="M298.451 204.648L330.429 214.321C331.552 214.661 332.737 214.026 333.077 212.903L333.078 212.898C333.418 211.775 332.783 210.59 331.66 210.25L299.682 200.578C298.56 200.238 297.374 200.873 297.035 201.995L297.033 202C296.694 203.123 297.328 204.309 298.451 204.648Z" fill="#FFA84D"/>
<path d="M302.017 200.221L329.586 208.56C330.708 208.9 331.894 208.265 332.233 207.142L332.235 207.137C332.575 206.015 331.94 204.829 330.817 204.489L303.248 196.15C302.125 195.811 300.94 196.445 300.6 197.568L300.599 197.573C300.259 198.696 300.894 199.881 302.017 200.221Z" fill="#FFECD9"/>
<path d="M226.303 188.156C226.264 188.158 226.225 188.158 226.185 188.156C225.802 188.187 225.418 188.197 225.039 188.197C221.484 188.185 218.064 186.839 215.454 184.425C212.845 182.011 211.237 178.705 210.95 175.162L206.738 122.413C206.438 118.663 207.641 114.948 210.08 112.084C212.52 109.22 215.997 107.442 219.747 107.142C220.544 107.076 221.345 107.076 222.142 107.142C218.413 107.467 214.964 109.253 212.547 112.111C210.13 114.969 208.941 118.667 209.241 122.398L213.453 175.147C213.716 178.482 215.151 181.617 217.502 183.998C219.854 186.379 222.971 187.851 226.303 188.156Z" fill="#F9E0E5"/>
<path d="M316.974 154.466V155.673C316.975 157.794 316.558 159.894 315.746 161.854C314.935 163.814 313.746 165.594 312.247 167.094C310.747 168.594 308.967 169.784 307.008 170.596C305.048 171.407 302.948 171.825 300.828 171.825H266.175C261.892 171.824 257.785 170.122 254.756 167.093C251.727 164.064 250.025 159.957 250.024 155.673V154.466C250.024 145.588 253.551 137.073 259.828 130.795C266.106 124.517 274.621 120.991 283.499 120.991C292.377 120.991 300.892 124.517 307.169 130.795C313.447 137.073 316.974 145.588 316.974 154.466Z" fill="#0D9A73"/>
<path d="M249.845 154.466V155.679C249.845 159.961 251.545 164.067 254.572 167.096C257.599 170.125 261.704 171.828 265.986 171.83H280.551C273.254 167.637 267.484 161.226 264.079 153.529C260.674 145.833 259.811 137.251 261.615 129.031C260.945 129.594 260.305 130.192 259.681 130.812C258.287 132.208 257.018 133.723 255.889 135.341C251.954 140.942 249.844 147.621 249.845 154.466Z" fill="#13B887"/>
<path d="M310.961 135.331C304.24 142.482 295.04 146.794 285.244 147.383C284.466 147.434 283.673 147.46 282.875 147.46C282.388 147.46 281.907 147.46 281.426 147.429C271.664 147.077 262.401 143.027 255.515 136.098C261.503 127.004 271.8 120.366 283.499 120.366C292.747 120.366 301.114 124.747 307.168 130.801C308.565 132.195 309.834 133.711 310.961 135.331Z" fill="#FFB2BF"/>
<path d="M285.244 147.383C284.466 147.434 283.673 147.46 282.875 147.46C282.388 147.46 281.907 147.46 281.426 147.429L281.856 144.988C281.917 144.646 282.096 144.337 282.363 144.114C282.629 143.891 282.965 143.769 283.312 143.769C283.659 143.769 283.995 143.891 284.262 144.114C284.528 144.337 284.707 144.646 284.768 144.988L285.244 147.383Z" fill="#FF6D8D"/>
<path d="M237.97 131.114C243.521 124.96 241.693 114.264 233.887 107.224C226.082 100.183 215.255 99.4643 209.704 105.618C204.154 111.772 205.982 122.468 213.787 129.508C221.593 136.548 232.42 137.267 237.97 131.114Z" fill="#FFB2BF"/>
<path d="M239.834 115.653C238.642 113.702 237.173 111.933 235.474 110.402C227.664 103.365 216.84 102.644 211.288 108.8C207.705 112.792 207.194 118.703 209.43 124.281C205.535 117.884 205.418 110.402 209.711 105.643C215.264 99.5013 226.088 100.208 233.893 107.244C236.491 109.556 238.523 112.432 239.834 115.653Z" fill="#F9E0E5"/>
<path d="M303.018 76.9218C310.474 76.9218 316.519 70.8774 316.519 63.4212C316.519 55.9651 310.474 49.9207 303.018 49.9207C295.562 49.9207 289.517 55.9651 289.517 63.4212C289.517 70.8774 295.562 76.9218 303.018 76.9218Z" fill="#FFA84D"/>
<path d="M300.341 76.3795C307.193 76.3795 312.747 70.8254 312.747 63.9741C312.747 57.1228 307.193 51.5687 300.341 51.5687C293.49 51.5687 287.936 57.1228 287.936 63.9741C287.936 70.8254 293.49 76.3795 300.341 76.3795Z" fill="#082A3C"/>
<path d="M279.646 50.3974L285.708 50.0945C290.739 49.8432 295.663 51.6006 299.398 54.9801C303.133 58.3597 305.373 63.0845 305.624 68.1152L306.682 89.2915C306.845 92.5578 306.364 95.8241 305.264 98.9042C304.165 101.984 302.47 104.818 300.276 107.243C298.082 109.668 295.431 111.637 292.476 113.037C289.521 114.438 286.319 115.243 283.053 115.406L281.202 115.498C274.606 115.828 268.149 113.524 263.251 109.092C258.354 104.661 255.418 98.4655 255.088 91.8691L254.41 78.2882C254.057 71.239 256.52 64.3386 261.255 59.105C265.991 53.8715 272.612 50.7334 279.661 50.3813L279.646 50.3974Z" fill="#082A3C"/>
<path d="M292.368 107.925L292.516 112.613L292.834 122.736C292.867 123.806 292.69 124.872 292.311 125.874C291.933 126.876 291.361 127.793 290.628 128.574C289.895 129.354 289.015 129.983 288.039 130.423C287.063 130.864 286.01 131.108 284.94 131.142C283.869 131.175 282.803 130.998 281.801 130.619C280.8 130.241 279.882 129.669 279.102 128.936C278.321 128.202 277.693 127.323 277.252 126.347C276.811 125.371 276.567 124.318 276.534 123.248L276.498 122.183L276.063 108.437C276.014 106.789 276.466 105.165 277.359 103.779C278.251 102.394 279.543 101.311 281.063 100.673C281.557 100.46 282.071 100.297 282.598 100.187C283.761 99.9575 284.959 99.9829 286.111 100.262C287.263 100.54 288.34 101.066 289.269 101.801C290.198 102.537 290.956 103.466 291.491 104.523C292.026 105.58 292.325 106.741 292.368 107.925Z" fill="#FFB2BF"/>
<path d="M292.368 107.925L292.516 112.613C288.47 117.589 282.801 120.981 276.503 122.193L276.068 108.447C276.017 106.798 276.467 105.173 277.359 103.785C278.25 102.397 279.542 101.312 281.063 100.673C281.557 100.46 282.071 100.297 282.598 100.187C283.761 99.9575 284.959 99.9829 286.111 100.262C287.263 100.54 288.34 101.066 289.269 101.801C290.198 102.537 290.956 103.466 291.491 104.523C292.026 105.58 292.325 106.741 292.368 107.925Z" fill="#F9A0B4"/>
<path d="M304.523 70.7242L304.492 88.5492C304.478 95.8213 301.577 102.79 296.427 107.924C291.276 113.057 284.297 115.935 277.025 115.924C271.417 115.913 266.042 113.676 262.082 109.704C258.123 105.732 255.902 100.35 255.909 94.7417V79.7825C255.909 79.6904 255.909 79.6034 255.909 79.5113C255.909 79.1019 255.909 78.6925 255.95 78.2882C256.342 71.0915 259.454 64.3127 264.657 59.3249C269.859 54.3371 276.763 51.5132 283.97 51.4252H285.249C287.781 51.4292 290.287 51.9318 292.624 52.9044C294.962 53.877 297.085 55.3004 298.872 57.0934C300.66 58.8865 302.076 61.014 303.041 63.3545C304.006 65.695 304.501 68.2027 304.497 70.7344L304.523 70.7242Z" fill="#FFB2BF"/>
<path d="M274.313 115.725C270.26 114.218 266.767 111.506 264.302 107.954C261.837 104.403 260.519 100.181 260.525 95.8575V80.8984C260.525 80.8063 260.525 80.7193 260.525 80.6272C260.525 80.2178 260.525 79.8083 260.571 79.404C260.962 72.2083 264.073 65.4302 269.275 60.4431C274.477 55.456 281.38 52.633 288.586 52.5461H289.865C290.627 52.5422 291.388 52.5901 292.143 52.6894C291.088 52.2763 289.996 51.9627 288.883 51.7529C287.684 51.5184 286.465 51.4002 285.244 51.3998H284.389C284.256 51.3998 284.123 51.3998 283.995 51.3998C276.787 51.4894 269.883 54.3162 264.682 59.3072C259.481 64.2983 256.372 71.0801 255.986 78.2781C255.955 78.6875 255.94 79.0918 255.94 79.5013V79.7776V94.7316C255.935 99.864 257.796 104.823 261.176 108.685C264.556 112.547 269.225 115.049 274.313 115.725Z" fill="#F9A0B4"/>
<path d="M309.016 83.1861L303.202 72.4644C302.642 71.4337 301.91 70.5061 301.037 69.7213L301.646 69.5575C301.861 69.4808 302.266 66.4869 302.255 66.2873C302.253 66.2366 302.242 66.1866 302.225 66.1389C301.09 62.9703 299.326 60.0638 297.04 57.5943C294.753 55.1247 291.991 53.143 288.919 51.7683C287.718 51.5363 286.498 51.418 285.275 51.4152H283.995C276.79 51.5058 269.889 54.3309 264.689 59.3184C259.488 64.3059 256.377 71.0833 255.986 78.2781C261.039 79.7364 266.425 79.5572 271.37 77.7664L279.558 75.535C282.324 74.7845 285.263 74.9902 287.897 76.1188C290.532 77.2474 292.708 79.2328 294.072 81.7531C295.387 84.1818 297.613 85.9888 300.26 86.7767C302.906 87.5646 305.758 87.269 308.187 85.9547C308.663 85.6969 309.018 85.2607 309.174 84.7417C309.329 84.2227 309.272 83.6633 309.016 83.1861Z" fill="#F9A0B4"/>
<path d="M292.336 61.8618L295.259 61.7158C299.208 61.5199 303.073 62.8998 306.004 65.5524C308.936 68.2049 310.694 71.9129 310.893 75.8613L311.313 84.2797C311.352 85.0538 311.081 85.8115 310.561 86.3862C310.041 86.9609 309.314 87.3054 308.54 87.3441C306.583 87.4419 304.625 87.1528 302.779 86.4934C300.933 85.8339 299.235 84.817 297.783 83.5009C296.33 82.1848 295.151 80.5952 294.314 78.8231C293.476 77.051 292.996 75.1311 292.901 73.1733L292.336 61.8618Z" fill="#082A3C"/>
<path d="M303.468 91.9731C308.211 91.9731 312.056 88.1283 312.056 83.3855C312.056 78.6428 308.211 74.798 303.468 74.798C298.726 74.798 294.881 78.6428 294.881 83.3855C294.881 88.1283 298.726 91.9731 303.468 91.9731Z" fill="#FFB2BF"/>
<path d="M304.277 91.9322C303.439 98.5655 300.207 104.664 295.188 109.082C290.17 113.5 283.711 115.933 277.025 115.924C274.024 115.924 271.057 115.282 268.325 114.041C270.178 114.567 272.095 114.832 274.021 114.829C280.562 114.834 286.89 112.502 291.863 108.253C296.837 104.004 300.128 98.1177 301.145 91.6559C301.186 91.3897 301.227 91.1185 301.257 90.8473C302.369 90.7406 303.45 90.4209 304.441 89.9056C305.794 89.1948 306.933 88.1359 307.741 86.8382C308.549 85.5405 308.997 84.0508 309.038 82.5226C309.078 80.9944 308.711 79.483 307.973 78.1441C307.235 76.8053 306.154 75.6873 304.84 74.9055C306.902 75.2406 308.771 76.3157 310.097 77.9296C311.424 79.5436 312.116 81.5856 312.045 83.6734C311.974 85.7612 311.145 87.7516 309.712 89.2718C308.279 90.792 306.342 91.7379 304.262 91.9322H304.277Z" fill="#FDC3CD"/>
<path d="M304.855 74.9055H304.748L304.518 74.8799V74.7366C304.63 74.7826 304.748 74.8389 304.855 74.9055Z" fill="#F9E0E5"/>
<path d="M306.35 82.7969C306.19 82.0928 305.826 81.4515 305.304 80.9535C304.781 80.4554 304.123 80.1229 303.412 79.9975C303.243 79.9748 303.071 79.9935 302.91 80.0521C302.75 80.1106 302.606 80.2072 302.491 80.3336C302.377 80.4599 302.294 80.6122 302.251 80.7775C302.208 80.9427 302.206 81.1158 302.245 81.2821L303.299 85.9341C303.34 86.1083 303.424 86.2693 303.544 86.4023C303.664 86.5354 303.815 86.6361 303.984 86.6953C304.152 86.7545 304.333 86.7702 304.51 86.7409C304.686 86.7116 304.853 86.6383 304.993 86.5278C305.554 86.1019 305.98 85.5235 306.22 84.8619C306.461 84.2003 306.506 83.4834 306.35 82.7969Z" fill="#F9A0B4"/>
<path d="M263.156 85.4122C264.287 85.4122 265.203 84.4957 265.203 83.3651C265.203 82.2345 264.287 81.318 263.156 81.318C262.025 81.318 261.109 82.2345 261.109 83.3651C261.109 84.4957 262.025 85.4122 263.156 85.4122Z" fill="#473A82"/>
<path d="M279.717 86.1901C280.847 86.1901 281.764 85.2736 281.764 84.143C281.764 83.0125 280.847 82.0959 279.717 82.0959C278.586 82.0959 277.67 83.0125 277.67 84.143C277.67 85.2736 278.586 86.1901 279.717 86.1901Z" fill="#473A82"/>
<path d="M307.956 68.0871L284.749 74.5273C276.717 76.7562 268.129 75.7032 260.873 71.6C253.618 67.4968 248.29 60.6795 246.061 52.6478L269.273 46.2062C277.305 43.9773 285.893 45.0303 293.148 49.1335C300.404 53.2367 305.732 60.054 307.961 68.0857L307.956 68.0871Z" fill="#082A3C"/>
<path d="M257.68 69.5165C257.649 69.4858 257.624 69.45 257.593 69.4142C253.274 64.2965 255.807 56.3947 262.265 54.6035L274.589 51.1797C279.187 49.9023 284.016 49.6896 288.709 50.5577C293.402 51.4259 297.835 53.3521 301.672 56.19C298.266 52.1671 293.903 49.0651 288.984 47.1693C284.066 45.2734 278.75 44.6445 273.524 45.3404C272.09 45.5313 270.671 45.822 269.277 46.2104L246.073 52.6434C247.937 59.4116 252.026 65.3551 257.68 69.5165Z" fill="#0F4D68"/>
<path d="M320.782 77.055C320.782 75.6446 319.638 74.5012 318.228 74.5012C316.817 74.5012 315.674 75.6446 315.674 77.055V136.902C315.674 138.312 316.817 139.455 318.228 139.455C319.638 139.455 320.782 138.312 320.782 136.902V77.055Z" fill="#0F4D68"/>
<path d="M267.245 91.6712C267.229 92.2349 267.324 92.7962 267.526 93.3231C267.727 93.85 268.03 94.332 268.417 94.7418C268.514 94.8442 268.617 94.9414 268.719 95.0335C269.473 95.6911 270.432 96.0657 271.431 96.0929H271.61C272.691 96.1215 273.744 95.7436 274.56 95.0339C275.376 94.3242 275.895 93.3343 276.017 92.2597C276.017 92.142 276.017 92.0243 276.042 91.9015C276.047 91.7918 276.029 91.6823 275.99 91.5795C275.952 91.4767 275.893 91.3825 275.818 91.3026C275.743 91.2226 275.652 91.1583 275.552 91.1135C275.452 91.0688 275.344 91.0443 275.234 91.0417L268.105 90.8421C267.993 90.838 267.882 90.8564 267.778 90.8962C267.674 90.936 267.579 90.9964 267.499 91.0738C267.418 91.1512 267.354 91.244 267.311 91.3467C267.267 91.4493 267.245 91.5597 267.245 91.6712Z" fill="#962F4A"/>
<path d="M271.554 95.4276C271.549 95.6503 271.564 95.8731 271.6 96.0929C272.682 96.1239 273.735 95.7468 274.552 95.0367C275.368 94.3265 275.888 93.3352 276.007 92.2597C275.5 92.0967 274.962 92.0538 274.436 92.1345C273.91 92.2151 273.41 92.4171 272.976 92.7245C272.541 93.0318 272.184 93.4361 271.933 93.9053C271.682 94.3744 271.543 94.8956 271.529 95.4276H271.554Z" fill="#E1617F"/>
<path d="M268.269 90.8473C268.269 91.6917 269.563 92.4082 271.165 92.4543C272.767 92.5003 274.093 91.8555 274.149 91.011L268.269 90.8473Z" fill="white"/>
<path d="M191.917 209.804H195.034C195.426 209.804 195.814 209.881 196.176 210.031C196.538 210.181 196.867 210.401 197.144 210.678C197.421 210.955 197.64 211.284 197.79 211.646C197.94 212.008 198.017 212.396 198.017 212.787V214.522H188.944V212.787C188.944 211.998 189.257 211.241 189.814 210.681C190.371 210.122 191.128 209.807 191.917 209.804Z" fill="#D7E2FF"/>
<path d="M182.833 209.804H185.95C186.741 209.804 187.5 210.118 188.06 210.678C188.619 211.237 188.933 211.996 188.933 212.787V214.522H179.855V212.787C179.855 211.997 180.168 211.239 180.727 210.68C181.285 210.12 182.043 209.805 182.833 209.804Z" fill="#D7E2FF"/>
<path d="M173.754 209.804H176.871C177.263 209.804 177.651 209.881 178.013 210.031C178.375 210.181 178.704 210.401 178.981 210.678C179.258 210.955 179.478 211.284 179.627 211.646C179.777 212.008 179.855 212.396 179.855 212.787V214.522H170.771V212.787C170.771 211.996 171.085 211.237 171.644 210.678C172.204 210.118 172.963 209.804 173.754 209.804Z" fill="#D7E2FF"/>
<path d="M164.67 209.804H167.787C168.578 209.804 169.337 210.118 169.897 210.678C170.456 211.237 170.771 211.996 170.771 212.787V214.522H161.692V212.787C161.692 211.997 162.005 211.239 162.564 210.68C163.122 210.12 163.88 209.805 164.67 209.804Z" fill="#D7E2FF"/>
<path d="M155.591 209.804H158.708C159.499 209.804 160.258 210.118 160.818 210.678C161.377 211.237 161.692 211.996 161.692 212.787V214.522H152.608V212.787C152.608 211.996 152.922 211.237 153.482 210.678C154.041 210.118 154.8 209.804 155.591 209.804Z" fill="#D7E2FF"/>
<path d="M146.507 209.804H149.624C150.415 209.804 151.174 210.118 151.734 210.678C152.293 211.237 152.608 211.996 152.608 212.787V214.522H143.524V212.787C143.524 211.996 143.838 211.237 144.398 210.678C144.957 210.118 145.716 209.804 146.507 209.804Z" fill="#D7E2FF"/>
<path d="M137.429 209.804H140.545C141.337 209.804 142.095 210.118 142.655 210.678C143.215 211.237 143.529 211.996 143.529 212.787V214.522H134.445V212.787C134.445 211.996 134.759 211.237 135.319 210.678C135.878 210.118 136.637 209.804 137.429 209.804Z" fill="#D7E2FF"/>
<path d="M222.327 211.964H126.072C124.029 211.964 122.372 213.62 122.372 215.664C122.372 217.707 124.029 219.364 126.072 219.364H222.327C224.37 219.364 226.027 217.707 226.027 215.664C226.027 213.62 224.37 211.964 222.327 211.964Z" fill="#4970DB"/>
<path d="M197.475 219.364H283.965C285.727 219.366 287.44 218.779 288.831 217.696C290.222 216.613 291.211 215.096 291.641 213.386L308.489 146.431C308.782 145.264 308.806 144.045 308.557 142.867C308.308 141.69 307.794 140.584 307.054 139.635C306.314 138.686 305.367 137.919 304.285 137.391C303.204 136.863 302.016 136.589 300.812 136.59H224.481C222.718 136.59 221.006 137.178 219.615 138.262C218.224 139.346 217.235 140.863 216.805 142.572L197.475 219.364Z" fill="#5476EF"/>
<path d="M308.489 146.431L291.631 213.386C291.2 215.096 290.211 216.613 288.821 217.696C287.43 218.78 285.717 219.369 283.954 219.369H197.465L199.328 211.964H267.67C269.432 211.964 271.144 211.376 272.535 210.293C273.925 209.21 274.915 207.695 275.346 205.986L292.199 139.01C292.399 138.213 292.475 137.39 292.424 136.569H300.812C302.018 136.569 303.207 136.844 304.29 137.373C305.373 137.902 306.321 138.672 307.062 139.623C307.802 140.574 308.316 141.682 308.563 142.862C308.81 144.042 308.785 145.262 308.489 146.431Z" fill="#4970DB"/>
<path d="M258.397 184.512C260.788 184.512 262.726 182.574 262.726 180.182C262.726 177.791 260.788 175.853 258.397 175.853C256.005 175.853 254.067 177.791 254.067 180.182C254.067 182.574 256.005 184.512 258.397 184.512Z" fill="#D7E2FF"/>
<path d="M264.174 186.661C263.492 187.732 262.577 188.636 261.499 189.306C260.42 189.976 259.205 190.396 257.943 190.534C256.681 190.672 255.403 190.525 254.205 190.104C253.007 189.683 251.919 188.998 251.021 188.101C250.123 187.203 249.438 186.115 249.016 184.917C248.595 183.72 248.447 182.442 248.585 181.18C248.722 179.918 249.141 178.702 249.811 177.624C250.481 176.545 251.384 175.63 252.455 174.947C251.416 176.576 250.964 178.511 251.174 180.432C251.385 182.353 252.244 184.144 253.611 185.51C254.977 186.876 256.769 187.735 258.69 187.944C260.611 188.153 262.546 187.701 264.174 186.661Z" fill="#D7E2FF"/>
</svg>
